<?xml version="1.0" standalone="no"?>
<!DOCTYPE svg PUBLIC "-//W3C//DTD SVG 1.1//EN" "http://www.w3.org/Graphics/SVG/1.1/DTD/svg11.dtd">
<svg xmlns="http://www.w3.org/2000/svg" viewBox="0 0 483.51 127.66" width="483.510009765625" height="127.66000366210938"><defs><style>.d{fill:#fff;}.e{fill:#f38c20;}.f{fill:#ef4723;}.g{fill:#f0a7ca;}.h{fill:#9d933d;}</style></defs><g id="a"/><g id="b"><g id="c"><g><path class="f" d="M79.22,38.45c1.47-5.94,3.02-12.05,5.22-17.88-.96-.43-2.25-.64-3.89-.64-1.41,0-2.72,.21-3.93,.61-1.21,.41-2.25,.91-3.14,1.5-.89,.59-1.58,1.21-2.08,1.84-.5,.64-.75,1.21-.75,1.71,0,.91,.2,1.46,.61,1.64,.41,.18,.86,.38,1.37,.58,.5,.2,.98,.58,1.43,1.13,.45,.55,.75,1.64,.89,3.28v12.42c0,1.08-.09,1.95-.24,2.65,.93-.8,1.87-1.59,2.82-2.34,.61-2.15,1.16-4.33,1.69-6.5Z"/><path class="e" d="M80.06,16.59c2.18,0,3.82-.8,4.91-2.39s1.64-3.48,1.64-5.67c0-4.37-2.19-6.55-6.55-6.55s-6.55,2.18-6.55,6.55c0,2.18,.55,4.07,1.64,5.67,1.09,1.59,2.73,2.39,4.92,2.39Z"/><path class="g" d="M90.3,51.06c-.41-.27-.87-.61-1.37-1.02-.5-.41-.96-1.08-1.36-2.01-.41-.93-.61-2.47-.61-4.61V25.87c0-2.18-.48-3.72-1.43-4.61-.29-.27-.66-.5-1.09-.69-2.2,5.82-3.75,11.94-5.22,17.88-.54,2.17-1.08,4.34-1.69,6.5-.95,.75-1.88,1.54-2.82,2.34-.1,.45-.22,.85-.38,1.14-.41,.75-.85,1.32-1.33,1.71-.48,.39-.92,.72-1.33,.99-.41,.27-.62,.82-.62,1.64,0,.59,.15,1.12,.44,1.57,.3,.45,.82,.83,1.57,1.13,.75,.3,1.76,.52,3.04,.68,.87,.11,1.91,.18,3.1,.21,.55,.02,1.13,.03,1.75,.03,1.96,0,3.57-.08,4.85-.24,1.27-.16,2.29-.39,3.04-.68,.75-.3,1.29-.68,1.6-1.16,.32-.48,.48-1.01,.48-1.6,0-.82-.21-1.36-.61-1.64Z"/><path class="g" d="M93.33,30.64c.06,1.65,.46,3.08,1.24,4.28,.84,1.3,1.89,2.42,3.14,3.38,1.25,.96,2.6,1.81,4.06,2.56,1.46,.75,2.81,1.51,4.06,2.29,1.25,.77,2.3,1.64,3.14,2.59,.84,.96,1.26,2.12,1.26,3.48s-.36,2.32-1.09,3c-.73,.68-1.55,1.02-2.46,1.02-1.05,0-2.05-.51-3-1.54-.96-1.02-1.43-2.65-1.43-4.88s-.32-3.7-.96-4.54c-.64-.84-1.53-1.26-2.66-1.26-.68,0-1.45,.13-2.29,.38-.84,.25-1.62,.63-2.32,1.13-.71,.5-1.31,1.1-1.81,1.81-.5,.71-.75,1.51-.75,2.42,0,1.68,.41,3.15,1.23,4.4,.82,1.25,1.9,2.29,3.24,3.11s2.88,1.43,4.61,1.84c1.73,.41,3.5,.61,5.32,.61,2,0,3.96-.23,5.87-.68,1.91-.45,3.62-1.14,5.12-2.05,1.5-.91,2.72-2.04,3.65-3.38,.93-1.34,1.4-2.9,1.4-4.68,0-2.09-.44-3.83-1.33-5.22-.89-1.39-2-2.57-3.35-3.55-1.34-.98-2.8-1.82-4.37-2.53-1.57-.7-3.03-1.43-4.37-2.18-1.34-.75-2.46-1.57-3.35-2.46-.89-.89-1.33-1.99-1.33-3.31,0-1.23,.34-2.13,1.02-2.7,.68-.57,1.43-.85,2.25-.85,.5,0,.99,.09,1.47,.27,.48,.18,.89,.47,1.23,.85,.34,.39,.6,.85,.79,1.4,.18,.55,.23,1.16,.14,1.84-.27,1.64-.21,2.96,.21,3.96,.41,1,1.36,1.5,2.87,1.5,.73,0,1.47-.11,2.22-.34,.75-.23,1.44-.58,2.08-1.06,.64-.48,1.16-1.07,1.57-1.77,.41-.7,.62-1.51,.62-2.42,0-1.23-.35-2.31-1.06-3.24-.71-.93-1.65-1.73-2.83-2.39-1.18-.66-2.54-1.16-4.06-1.5-1.53-.34-3.08-.51-4.68-.51-1.13,0-2.25,.09-3.35,.26-.78,1.21-1.64,2.37-2.59,3.44-2.53,2.87-5.35,5.25-8.37,7.21Z"/><path class="e" d="M97.85,22.25c-1.34,.86-2.44,1.96-3.28,3.28-.84,1.32-1.26,2.89-1.26,4.71,0,.14,.02,.26,.02,.4,3.02-1.95,5.84-4.34,8.37-7.21,.95-1.08,1.81-2.23,2.59-3.44-.63,.09-1.25,.21-1.87,.36-1.71,.41-3.23,1.05-4.57,1.91Z"/><path class="g" d="M144.15,47.16c-.51,.14-1,.21-1.48,.21-1,0-1.83-.33-2.49-.99-.66-.66-.99-1.72-.99-3.17V26.08c0-2.23-.48-3.79-1.43-4.68-.96-.89-2.62-1.33-4.98-1.33-.82,0-1.81,.14-2.97,.41-1.16,.27-2.29,.66-3.38,1.16-1.09,.5-2.03,1.1-2.8,1.81-.77,.71-1.16,1.47-1.16,2.29,0,.91,.19,1.46,.58,1.64,.39,.18,.84,.38,1.37,.58,.52,.2,1.01,.59,1.47,1.16,.45,.57,.75,1.67,.89,3.31v12.36c0,4.01,.9,6.95,2.7,8.84,1.8,1.89,4.36,2.83,7.68,2.83,2.73,0,5.2-.58,7.41-1.74,1.08-.57,2.11-1.26,3.08-2.07-1.35-1.67-2.53-3.52-3.47-5.48Z"/><path class="h" d="M166.86,49.49c-.21-.27-.47-.47-.78-.58-.32-.11-.67-.23-1.06-.34-.39-.11-.74-.34-1.06-.68-.32-.34-.58-.85-.79-1.54-.21-.68-.31-1.64-.31-2.87V26.08c0-2.23-.48-3.79-1.43-4.68s-2.62-1.33-4.98-1.33c-.82,0-1.81,.14-2.97,.41-1.16,.27-2.29,.66-3.38,1.16-.64,.29-1.22,.63-1.75,.99-.38,.26-.73,.53-1.05,.82-.77,.71-1.16,1.47-1.16,2.29,0,.91,.19,1.46,.58,1.64,.39,.18,.84,.38,1.36,.58,.52,.2,1.01,.59,1.47,1.16,.46,.57,.75,1.67,.89,3.31v7.99c-.27,1.05-.69,2-1.26,2.87-.57,.87-1.22,1.6-1.95,2.22-.73,.61-1.49,1.08-2.29,1.4-.27,.11-.54,.19-.8,.26,.94,1.96,2.12,3.82,3.47,5.48,1-.83,1.95-1.79,2.83-2.88,0,2.55,.5,4.31,1.5,5.29,1,.98,2.78,1.47,5.32,1.47,1.37,0,2.65-.2,3.86-.61,1.21-.41,2.25-.92,3.14-1.54,.89-.61,1.59-1.25,2.12-1.91,.1-.13,.19-.25,.27-.38,.34-.5,.51-.93,.51-1.3,0-.59-.1-1.02-.31-1.3Z"/><path class="h" d="M205.19,22.87c-1.82-1.91-4.39-2.87-7.71-2.87-2.91,0-5.5,.68-7.75,2.05-2.25,1.37-4.24,3.28-5.97,5.73,0-1.32-.05-2.47-.14-3.45-.09-.98-.35-1.79-.78-2.42-.43-.64-1.08-1.11-1.95-1.43-.86-.32-2.05-.48-3.55-.48-1.41,0-2.72,.21-3.93,.61-1.21,.41-2.25,.91-3.14,1.5-.89,.59-1.58,1.21-2.08,1.84-.5,.64-.75,1.21-.75,1.71,0,.59,.09,1.02,.27,1.3,.18,.27,.42,.48,.72,.61,.3,.14,.62,.25,.99,.34,.36,.09,.71,.28,1.02,.58,.32,.3,.59,.74,.82,1.33,.23,.59,.39,1.43,.48,2.53v11.13c0,1.41-.09,2.55-.27,3.41-.18,.86-.42,1.55-.72,2.05-.3,.5-.62,.88-.96,1.13-.34,.25-.66,.48-.96,.68-.3,.2-.54,.45-.72,.75-.14,.23-.21,.56-.24,.95,0,.11-.03,.2-.03,.32,0,.59,.15,1.12,.44,1.57,.3,.45,.82,.84,1.57,1.16,.75,.32,1.76,.55,3.04,.68,.84,.09,1.86,.15,3,.18,.58,.02,1.19,.03,1.84,.03,.61,0,1.17,0,1.71-.02,1.96-2.12,4.08-4.14,6.31-6.07-.03-.02-.05-.03-.07-.06-.48-.36-.92-.92-1.33-1.67-.41-.75-.61-1.97-.61-3.65v-9.01c.27-1.05,.72-1.99,1.33-2.83,.61-.84,1.3-1.56,2.05-2.15,.75-.59,1.55-1.06,2.39-1.4,.84-.34,1.63-.51,2.35-.51,1.05,0,1.91,.34,2.59,1.02,.68,.68,1.02,1.75,1.02,3.21v9.48c4.06-2.96,8.2-5.79,12.42-8.5v-2.49c0-4-.91-6.96-2.73-8.88Z"/><path class="e" d="M195.5,47.24c0,3.28,.36,6.16,1.09,8.64,.73,2.48,1.7,4.63,2.9,6.45,1.21,1.82,2.58,3.34,4.13,4.57,1.55,1.23,3.16,2.21,4.85,2.94,1.68,.73,3.37,1.24,5.05,1.54,1.68,.3,3.25,.44,4.71,.44,2.5,0,4.65-.27,6.45-.82,1.8-.55,3.27-1.25,4.4-2.12,1.14-.86,1.97-1.82,2.49-2.87,.52-1.05,.78-2.07,.78-3.07,0-1.41-.47-2.63-1.4-3.65-.93-1.02-2.26-1.54-3.99-1.54-.96,0-1.82,.14-2.59,.41-.77,.27-1.46,.62-2.05,1.06-.59,.43-1.13,.91-1.6,1.43-.48,.52-.92,1.04-1.33,1.54-.73,.82-1.36,1.51-1.91,2.08-.55,.57-1.07,1.01-1.57,1.33-.5,.32-.98,.55-1.43,.68-.45,.14-.93,.2-1.43,.2-1.5,0-2.62-.49-3.35-1.47-.73-.98-1.23-2.33-1.5-4.06-.27-1.73-.39-3.77-.34-6.11,.04-2.34,.07-4.88,.07-7.61v-13.01c-4.23,2.71-8.37,5.54-12.42,8.5v4.51Z"/><path class="e" d="M179.47,56.37c1.2-.03,2.25-.09,3.13-.18,1.27-.14,2.29-.35,3.04-.65,.75-.3,1.27-.67,1.57-1.13,.3-.45,.44-.98,.44-1.57,0-.77-.21-1.31-.61-1.6-.39-.28-.81-.59-1.26-.93-2.23,1.93-4.35,3.95-6.31,6.07Z"/><path class="h" d="M249.77,5.94c0-2.18-.48-3.72-1.43-4.61-.96-.89-2.59-1.33-4.92-1.33h-.07c-1.41,0-2.72,.2-3.93,.61-1.21,.41-2.25,.91-3.14,1.5-.89,.59-1.58,1.21-2.08,1.84-.5,.64-.75,1.21-.75,1.71,0,.91,.21,1.46,.61,1.64,.41,.18,.86,.38,1.37,.58,.5,.2,.99,.58,1.47,1.13,.48,.55,.78,1.64,.92,3.28v6.16c3.9-1.44,7.87-2.55,11.95-3.21V5.94Z"/><path class="h" d="M233.37,20.23c-1.29-.19-2.58-.3-3.87-.3-2.55,0-4.97,.35-7.27,1.06-2.3,.71-4.31,1.83-6.04,3.38-1.73,1.55-3.1,3.55-4.1,6.01-.2,.5-.37,1.03-.53,1.57,2.84-1.75,5.7-3.44,8.61-5.07,4.36-2.44,8.75-4.72,13.2-6.65Z"/><path class="e" d="M211.95,46.73c.91,2.12,2.09,3.87,3.55,5.26,1.46,1.39,3.11,2.43,4.95,3.14,1.84,.71,3.72,1.06,5.63,1.06,2.32,0,4.53-.49,6.62-1.47,2.09-.98,3.8-2.47,5.12-4.47,0,2.18,.48,3.73,1.43,4.64,.96,.91,2.59,1.37,4.91,1.37,.82,0,1.8-.14,2.94-.41,1.14-.27,2.23-.66,3.28-1.16,1.05-.5,1.93-1.09,2.66-1.77,.73-.68,1.09-1.46,1.09-2.32,0-.96-.21-1.51-.62-1.67-.41-.16-.86-.33-1.36-.51-.5-.18-.99-.63-1.47-1.33-.48-.7-.79-2.08-.92-4.13V15.23c-4.07,.66-8.05,1.77-11.95,3.21v2.99c-1.32-.55-2.69-.93-4.1-1.16-.12-.02-.24-.03-.36-.04-4.45,1.93-8.84,4.21-13.2,6.65-2.91,1.63-5.78,3.32-8.61,5.07-.64,2.12-.97,4.55-.97,7.3s.46,5.36,1.37,7.47Zm12.08-15.63c.5-1.61,1.14-2.96,1.91-4.03,.77-1.07,1.65-1.87,2.63-2.39,.98-.52,1.97-.79,2.97-.79,1.64,0,3.09,.72,4.37,2.15,1.27,1.43,1.91,3.54,1.91,6.31v9.76c0,1.18-.19,2.26-.58,3.24-.39,.98-.91,1.82-1.57,2.53-.66,.71-1.4,1.25-2.22,1.64-.82,.39-1.68,.58-2.59,.58-.96,0-1.88-.24-2.77-.72-.89-.48-1.7-1.25-2.42-2.32-.73-1.07-1.31-2.45-1.74-4.13-.43-1.68-.65-3.73-.65-6.14,0-2.18,.25-4.08,.75-5.7Z"/><path class="e" d="M288.72,46.56c-.25-.55-.67-.82-1.26-.82-.37,0-.71,.09-1.02,.27-1.08,.65-2.22,1.18-3.42,1.59-.22,.08-.45,.16-.67,.22-1.46,.43-3,.65-4.64,.65-1.41,0-2.64-.16-3.69-.48-1.05-.32-1.9-.74-2.56-1.26-.66-.52-1.15-1.13-1.47-1.81-.29-.61-.44-1.25-.46-1.9-4.16,.74-7.62,.63-9.99-1.66-2.35-2.28-3.84-5.27-4.65-8.57-.43,1.65-.66,3.41-.66,5.3,0,3.05,.53,5.71,1.6,7.99,1.07,2.28,2.48,4.16,4.23,5.67,1.75,1.5,3.74,2.63,5.97,3.38,1.4,.47,2.82,.78,4.25,.95,.85,.1,1.71,.17,2.57,.17,.18,0,.36-.01,.54-.01,2.9-.07,5.68-.72,8.33-1.97,.5-.23,.97-.49,1.43-.77,2.16-1.28,3.94-3,5.32-5.17,.41-.64,.49-1.23,.24-1.77Z"/><path class="g" d="M269.51,43.02c0-.07-.01-.15-.01-.22,0-1.27,.45-2.18,1.37-2.73,.91-.55,2.04-.94,3.38-1.19,1.34-.25,2.8-.45,4.37-.61,1.57-.16,3.03-.49,4.37-.99,1.34-.5,2.47-1.27,3.38-2.32,.91-1.05,1.37-2.57,1.37-4.57,0-3.14-1.2-5.73-3.58-7.78-2.39-2.05-5.88-3.07-10.48-3.07-2.91,0-5.58,.44-7.99,1.33-2.41,.89-4.46,2.15-6.14,3.79-1.69,1.64-2.99,3.6-3.93,5.87-.3,.73-.53,1.5-.74,2.28,.82,3.3,2.31,6.29,4.65,8.57,2.36,2.29,5.83,2.4,9.99,1.66Zm-4.11-13.77c.55-1.75,1.48-3.21,2.8-4.37,1.32-1.16,3.05-1.74,5.19-1.74,1.91,0,3.39,.48,4.44,1.43,1.05,.96,1.57,2.21,1.57,3.75,0,1.46-.32,2.58-.96,3.38-.64,.8-1.45,1.42-2.42,1.88-.98,.46-2.04,.83-3.18,1.13-1.14,.3-2.2,.65-3.17,1.06-.98,.41-1.79,.96-2.42,1.64-.64,.68-.96,1.68-.96,3-.82-1.68-1.31-3.53-1.47-5.53-.16-2,.03-3.88,.58-5.63Z"/><path class="e" d="M309.37,51.13c-.41-.27-.87-.63-1.37-1.06-.5-.43-.96-1.1-1.37-2.01-.41-.91-.61-2.43-.61-4.57v-2.18c-2.07-.79-4.06-1.47-5.93-1.94-1.88-.48-3.76-.72-5.65-.79-.12,.12-.22,.25-.35,.36-.03,.03-.06,.06-.09,.08v5.63c0,1.77-.21,3.05-.61,3.82-.41,.77-.85,1.35-1.33,1.74-.48,.39-.92,.72-1.33,.99-.41,.27-.62,.82-.62,1.64,0,.05,.02,.1,.02,.15,.02,.53,.15,1.01,.42,1.42,.3,.45,.82,.83,1.57,1.13,.75,.3,1.76,.51,3.04,.65,1.27,.14,2.89,.2,4.85,.2s3.57-.07,4.85-.2c1.27-.14,2.29-.36,3.04-.68h.02c.74-.32,1.27-.71,1.59-1.16,.32-.45,.48-.98,.48-1.57,0-.82-.21-1.36-.61-1.64Z"/><path class="d" d="M294.1,38.93c.12-.11,.23-.24,.35-.36-.15,0-.29-.02-.44-.02v.47s.06-.06,.09-.08Z"/><path class="g" d="M325.7,7.73c-.08-.1-.14-.22-.22-.32-.86-1.02-2.32-1.54-4.37-1.54-1.77,0-3.5,.41-5.19,1.23-1.68,.82-3.27,1.99-4.75,3.52-1.48,1.52-2.79,3.36-3.92,5.49-1.01,1.89-1.82,3.99-2.47,6.27-.09,.3-.18,.59-.26,.89-.08-.41-.21-.79-.37-1.13-.23-.49-.55-.93-.96-1.29-.5-.43-1.24-.7-2.22-.83-.42-.06-.86-.09-1.37-.09-1.41,0-2.72,.21-3.93,.61-.15,.05-.29,.11-.43,.16-1.02,.38-1.93,.82-2.71,1.34-.89,.59-1.58,1.21-2.08,1.84-.5,.64-.75,1.21-.75,1.71,0,.59,.09,1.02,.27,1.3,.18,.27,.42,.48,.72,.61,.3,.14,.62,.26,.99,.38,.36,.11,.71,.31,1.02,.58,.32,.27,.59,.71,.82,1.3,.23,.59,.39,1.43,.48,2.53v6.26c.15,0,.29,.02,.44,.02,1.88,.08,3.77,.32,5.65,.79,1.86,.47,3.86,1.15,5.93,1.94v-8.27c0-2.87,.38-5.3,1.13-7.3,.25-.66,.53-1.26,.82-1.84,.6-1.18,1.29-2.2,2.08-3.04,1.18-1.25,2.51-2.17,3.99-2.77,1.48-.59,2.95-.89,4.4-.89s2.62-.12,3.65-.34c1.25-.27,2.21-.7,2.87-1.3,1.21-1.09,1.81-2.53,1.81-4.3,0-1.4-.37-2.57-1.08-3.54Z"/><path class="e" d="M317.2,46.19c-1.87-.88-3.75-1.74-5.6-2.56-.21,.23-.42,.46-.6,.71-.5,.71-.75,1.51-.75,2.42,0,1.68,.41,3.15,1.23,4.4,.82,1.25,1.9,2.29,3.24,3.11,1.27,.77,2.71,1.36,4.33,1.77-1.23-2.98-1.86-6.2-1.86-9.52,0-.11,0-.22,0-.33Z"/><path class="e" d="M325.48,53.25c-1.05,0-2.05-.51-3-1.54-.77-.83-1.22-2.07-1.36-3.69-1.3-.61-2.6-1.22-3.91-1.83,0,.11,0,.22,0,.33,0,3.32,.62,6.53,1.86,9.52,.1,.02,.18,.05,.28,.08,1.73,.41,3.5,.61,5.32,.61,2,0,3.96-.23,5.87-.68,1.91-.45,3.62-1.14,5.12-2.05-2.17-.63-4.58-1.55-7.1-2.62-.17,.32-.36,.61-.61,.85-.73,.68-1.55,1.02-2.46,1.02Z"/><g><path class="g" d="M339.37,40.72c-.89-1.39-2-2.57-3.35-3.55-1.34-.98-2.8-1.82-4.37-2.53-1.57-.7-3.03-1.43-4.37-2.18-1.34-.75-2.46-1.57-3.35-2.46-.89-.89-1.33-1.99-1.33-3.31,0-1.23,.34-2.13,1.02-2.7,.68-.57,1.43-.85,2.25-.85,.5,0,.99,.09,1.47,.27,.48,.18,.89,.47,1.23,.85,.34,.39,.6,.85,.79,1.4,.18,.55,.23,1.16,.14,1.84-.27,1.64-.21,2.96,.2,3.96,.41,1,1.36,1.5,2.87,1.5,.73,0,1.47-.11,2.22-.34,.75-.23,1.44-.58,2.08-1.06,.64-.48,1.16-1.07,1.57-1.77,.41-.7,.61-1.51,.61-2.42,0-1.23-.35-2.31-1.06-3.24-.71-.93-1.65-1.73-2.83-2.39-1.18-.66-2.54-1.16-4.06-1.5-1.53-.34-3.08-.51-4.68-.51-1.77,0-3.52,.2-5.22,.61-.08,.02-.15,.05-.23,.07-1.61,.41-3.06,1.02-4.34,1.85-1.34,.86-2.44,1.96-3.28,3.28-.36,.56-.63,1.18-.83,1.84-.28,.88-.43,1.83-.43,2.87,0,1.82,.42,3.38,1.26,4.68,.84,1.3,1.89,2.42,3.14,3.38,.32,.25,.67,.47,1.01,.7,.8,.55,1.63,1.07,2.51,1.55,.18,.1,.35,.21,.54,.31,1.46,.75,2.81,1.51,4.06,2.29,1.25,.77,2.3,1.64,3.14,2.59,.53,.6,.88,1.3,1.07,2.07,.11,.45,.19,.91,.19,1.41,0,.86-.17,1.57-.48,2.16,2.52,1.07,4.93,1.99,7.1,2.62,.77-.47,1.46-.99,2.08-1.57,.59-.55,1.12-1.16,1.57-1.81,.93-1.34,1.4-2.9,1.4-4.68,0-2.09-.44-3.83-1.33-5.22Z"/><path class="g" d="M320.09,42.29c-.64-.84-1.53-1.26-2.66-1.26-.02,0-.04,0-.05,0-.67,0-1.41,.13-2.23,.37-.84,.25-1.62,.63-2.32,1.13-.45,.32-.84,.7-1.21,1.1,1.85,.82,3.72,1.68,5.6,2.56,1.31,.61,2.61,1.22,3.91,1.83-.03-.38-.07-.76-.07-1.19,0-2.18-.32-3.7-.96-4.54Z"/></g><path class="h" d="M359.75,24.23c1.32,0,2.24-.32,2.76-.96,.52-.64,.75-1.31,.68-2.01-.07-.7-.41-1.3-1.02-1.77-.61-.48-1.42-.53-2.42-.17l-3.14,1.02v-5.53c0-.77-.19-1.34-.58-1.71s-.9-.55-1.54-.55c-.82,0-1.73,.32-2.73,.96l-5.48,3.56c.87,3.85,2.52,7.18,5.46,9.44,1.51,.44,3.15,.54,4.86,.4v-2.67h3.14Z"/><path class="g" d="M351.75,26.51c-2.94-2.25-4.59-5.59-5.46-9.44l-3.88,2.52c-.68,.45-1.14,.94-1.36,1.47s-.26,1.01-.1,1.47c.16,.45,.47,.83,.92,1.13,.45,.3,1,.44,1.64,.44,.23,0,.41,.06,.55,.17,.14,.11,.25,.42,.34,.92,.09,.5,.16,1.27,.21,2.32,.04,1.05,.07,2.5,.07,4.37v14.54c0,1.77,.25,3.27,.75,4.47,.5,1.21,1.18,2.18,2.05,2.94,.86,.75,1.84,1.3,2.94,1.64,1.09,.34,2.21,.51,3.34,.51s2.17-.13,3.24-.38c1.07-.25,2.05-.59,2.94-1.02,.89-.43,1.66-.92,2.32-1.47,.66-.55,1.1-1.11,1.33-1.71,.32-.73,.33-1.41,.03-2.05-.3-.64-.76-.96-1.4-.96-.36,0-.71,.09-1.02,.27-.73,.36-1.34,.55-1.84,.55-1.14,0-1.88-.75-2.22-2.25-.34-1.5-.51-3.55-.51-6.14v-13.92c-1.71,.15-3.35,.05-4.86-.4Z"/><path class="h" d="M373.91,54.89c2.25,.91,4.88,1.37,7.88,1.37s5.87-.48,8.19-1.43c2.32-.96,4.24-2.26,5.77-3.93,1.52-1.66,2.67-3.59,3.45-5.8,.77-2.21,1.16-4.56,1.16-7.07s-.38-4.79-1.13-7c-.62-1.81-1.51-3.43-2.65-4.88-3.05,3.33-6.18,6.53-9.46,9.57,.04,.19,.09,.37,.13,.57,.5,2.39,.76,4.67,.79,6.83,.02,2.16-.22,4.05-.72,5.67-.5,1.62-1.32,2.63-2.46,3.04-1.14,.41-2.23,.06-3.28-1.06-1.05-1.11-1.97-2.63-2.76-4.54-.36-.87-.69-1.79-.99-2.75-1.18,.88-2.39,1.73-3.62,2.56-2.52,1.7-5.23,2.64-6.97,3.88,.31,.41,.64,.81,1,1.18,1.52,1.62,3.41,2.88,5.67,3.79Z"/><path class="g" d="M377.84,43.47c-.36-1.16-.68-2.38-.96-3.67-.5-2.37-.77-4.63-.82-6.79-.05-2.16,.18-4.06,.68-5.7,.5-1.64,1.32-2.64,2.46-3,1.18-.41,2.3-.07,3.34,1.02,1.05,1.09,1.97,2.59,2.77,4.51,.73,1.76,1.33,3.72,1.81,5.88,3.28-3.04,6.41-6.24,9.46-9.57-.25-.31-.49-.63-.76-.92-1.52-1.66-3.44-2.98-5.73-3.96-2.3-.98-4.97-1.47-8.02-1.47s-5.72,.45-8.02,1.36c-2.3,.91-4.21,2.17-5.73,3.79-1.53,1.62-2.67,3.54-3.45,5.77-.77,2.23-1.16,4.67-1.16,7.3s.38,5.08,1.13,7.3c.58,1.71,1.38,3.24,2.42,4.59,1.74-1.24,4.45-2.18,6.97-3.88,1.24-.83,2.44-1.69,3.62-2.56Z"/><path class="h" d="M425.42,48.78c-.5,1.62-1.32,2.63-2.46,3.04-1.14,.41-2.23,.06-3.28-1.06-1.05-1.11-1.97-2.63-2.76-4.54-.8-1.91-1.45-4.05-1.95-6.42-.5-2.37-.77-4.63-.82-6.79-.01-.7,0-1.36,.05-2-1.46-2.9-2.73-5.94-3.78-9.06-1.55,.81-2.89,1.81-4.02,3-1.53,1.62-2.67,3.54-3.45,5.77-.77,2.23-1.16,4.67-1.16,7.3s.38,5.08,1.13,7.3c.75,2.23,1.89,4.15,3.41,5.77,1.52,1.62,3.41,2.88,5.67,3.79,2.25,.91,4.88,1.37,7.88,1.37s5.87-.48,8.19-1.43c2.32-.96,4.24-2.26,5.77-3.93,.15-.16,.28-.34,.42-.51-2.32-1.39-5.34-3.22-8.2-5.27-.1,1.34-.31,2.57-.65,3.66Z"/><path class="e" d="M438.46,38.02c0-2.46-.38-4.79-1.13-7-.75-2.21-1.89-4.14-3.41-5.8-1.52-1.66-3.44-2.98-5.73-3.96-2.3-.98-4.97-1.47-8.02-1.47s-5.72,.45-8.02,1.36c-.6,.24-1.17,.5-1.71,.79,1.05,3.12,2.32,6.16,3.78,9.06,.09-1.35,.29-2.59,.63-3.7,.5-1.64,1.32-2.64,2.46-3,1.18-.41,2.3-.07,3.34,1.02,1.05,1.09,1.97,2.59,2.77,4.51,.8,1.91,1.44,4.06,1.95,6.45,.5,2.39,.76,4.67,.79,6.83,0,.7-.02,1.36-.07,2.01,2.87,2.04,5.88,3.88,8.2,5.27,1.31-1.55,2.33-3.3,3.03-5.3,.77-2.21,1.16-4.56,1.16-7.07Z"/><path class="e" d="M467.2,50.24c0,2.18,.48,3.73,1.43,4.64,.96,.91,2.59,1.37,4.91,1.37,.82,0,1.8-.14,2.94-.41,1.14-.27,2.23-.66,3.28-1.16,1.05-.5,1.93-1.09,2.66-1.77,.73-.68,1.09-1.46,1.09-2.32,0-.96-.21-1.51-.62-1.67-.41-.16-.86-.33-1.36-.51-.5-.18-.99-.63-1.47-1.33-.48-.7-.79-2.08-.92-4.13V5.94c0-2.18-.48-3.72-1.43-4.61-.96-.89-2.59-1.33-4.92-1.33h-.07c-1.41,0-2.72,.2-3.92,.61-1.21,.41-2.25,.91-3.14,1.5-.89,.59-1.58,1.21-2.08,1.84-.5,.64-.75,1.21-.75,1.71,0,.91,.21,1.46,.61,1.64,.41,.18,.86,.38,1.37,.58,.5,.2,.99,.58,1.47,1.13,.48,.55,.78,1.64,.92,3.28v9.15c-1.32-.55-2.69-.93-4.1-1.16-1.35-.22-2.71-.33-4.06-.33,.31,1.34,.6,2.69,.87,4.05,.34-.06,.67-.1,1.01-.1,1.64,0,3.09,.72,4.37,2.15,1.27,1.43,1.91,3.54,1.91,6.31v9.76c0,1.18-.19,2.26-.58,3.24-.39,.98-.91,1.82-1.57,2.53-.66,.71-1.4,1.25-2.22,1.64-.37,.17-.75,.3-1.13,.4-.09,1.71-.22,3.41-.38,5.1,.26-.1,.51-.19,.77-.31,2.09-.98,3.8-2.47,5.12-4.47Z"/><path class="g" d="M460.24,50.11c-.96,0-1.88-.24-2.77-.72-.89-.48-1.7-1.25-2.42-2.32-.73-1.07-1.31-2.45-1.74-4.13-.43-1.68-.65-3.73-.65-6.14,0-2.18,.25-4.08,.75-5.7,.5-1.61,1.14-2.96,1.91-4.03,.77-1.07,1.65-1.87,2.63-2.39,.65-.35,1.3-.57,1.96-.68-.26-1.36-.55-2.72-.87-4.05-.06,0-.11,0-.17,0-2.55,0-4.97,.35-7.27,1.06-2.3,.71-4.31,1.83-6.04,3.38-1.73,1.55-3.1,3.55-4.1,6.01-1,2.46-1.5,5.42-1.5,8.88,0,2.87,.46,5.36,1.37,7.47,.91,2.12,2.09,3.87,3.55,5.26,1.46,1.39,3.11,2.43,4.95,3.14,1.84,.71,3.72,1.06,5.63,1.06,2.04,0,3.99-.4,5.86-1.16,.17-1.69,.3-3.38,.38-5.1-.47,.12-.96,.18-1.46,.18Z"/><path class="e" d="M322.26,63.79c-.3-.43-.82-.8-1.57-1.09-.75-.3-1.76-.51-3.04-.65s-2.89-.21-4.85-.21h-1.71c-1.37,0-2.62,.39-3.75,1.16-1.14,.77-2,1.77-2.59,3l-5.05,10.56-3.28,6.85-3.42-6.31-6.82-12.6c-.5-.96-1.16-1.64-1.98-2.05-.82-.41-1.8-.61-2.94-.61h-3.48c-.98,0-1.98,.06-2.99,.14,4.03,4,6.83,9.69,11.31,15.06,1.94,2.33,4.2,4.6,7.01,6.65,2.14,1.56,4.71,3.11,7.6,4.68l4.44-8.92v11.22c3.94,1.96,8.27,3.93,12.77,5.96v-21.47c0-.75,.04-1.4,.1-2,.11-1.12,.32-2.02,.65-2.64,.5-.96,1.05-1.67,1.64-2.15,.59-.48,1.14-.89,1.64-1.23,.5-.34,.75-.94,.75-1.81,0-.59-.15-1.1-.44-1.54Z"/><path class="f" d="M333.25,117.55c-.57-.45-1.56-.68-2.97-.68-.82,0-1.7,.05-2.63,.14-.93,.09-1.85,.08-2.76-.03-.91-.11-1.79-.4-2.63-.85-.84-.46-1.58-1.24-2.22-2.36-.64-1.12-1.15-2.63-1.54-4.54-.1-.5-.19-1.05-.26-1.63-.21-1.62-.32-3.53-.32-5.74v-5.22c-4.5-2.02-8.83-4-12.77-5.96v11.18c0,.24,0,.46,0,.7,.04,4.6,.47,8.48,1.29,11.63,.86,3.3,2.02,5.95,3.48,7.95,1.46,2,3.14,3.42,5.05,4.27,1.91,.84,3.89,1.26,5.94,1.26s3.88-.29,5.49-.85c1.62-.57,2.99-1.27,4.13-2.12,1.14-.84,2.01-1.74,2.63-2.7,.62-.96,.92-1.82,.92-2.59s-.29-1.39-.85-1.84Z"/><path class="f" d="M293.11,83.71c-2.81-2.05-5.06-4.32-7.01-6.65-4.48-5.38-7.29-11.06-11.31-15.06-1.63,.14-3.3,.38-5.03,.74-1.15,.24-2.25,.58-3.31,.97-1.54,.56-3,1.25-4.37,2.11-1.11,.69-2.11,1.51-3.04,2.44-1.02,1.02-1.93,2.18-2.73,3.49-1.52,2.5-2.29,5.64-2.29,9.42,0,.96,.17,1.81,.51,2.56,.34,.75,.81,1.4,1.4,1.95,.42,.38,.88,.68,1.36,.93,.2,.1,.4,.22,.62,.3,.73,.27,1.46,.41,2.19,.41,.77,0,1.52-.15,2.25-.44,.73-.3,1.38-.75,1.95-1.37,.57-.61,1.02-1.4,1.36-2.36,.34-.96,.51-2.12,.51-3.48s-.01-2.66-.03-4.03c-.02-1.36,.04-2.6,.21-3.72,.16-1.11,.45-2.02,.89-2.73,.43-.71,1.1-1.06,2.01-1.06s1.71,.47,2.39,1.4c.68,.93,1.02,2.67,1.02,5.22v22.66c0,1.41-.14,2.55-.4,3.45-.13,.47-.29,.89-.49,1.22-.59,.98-1.24,1.72-1.94,2.22-.71,.5-1.35,.96-1.95,1.36-.59,.41-.89,1.09-.89,2.05,0,.46,.25,.85,.75,1.19,.5,.34,1.17,.63,2.01,.85,.84,.23,1.8,.4,2.87,.51,1.07,.11,2.17,.17,3.31,.17s2.17-.06,3.24-.17c1.07-.11,2.02-.29,2.87-.51,.84-.23,1.51-.51,2.01-.85,.5-.34,.75-.74,.75-1.19,0-.96-.3-1.64-.89-2.05-.59-.41-1.24-.86-1.94-1.36-.71-.5-1.35-1.24-1.95-2.22-.01-.02-.02-.05-.03-.07-.57-.98-.86-2.51-.86-4.61v-17.75l10.45,18.84c.18,.31,.38,.58,.59,.8,.23,.24,.49,.44,.77,.59,.55,.3,1.11,.44,1.71,.44,.64,0,1.22-.15,1.74-.44,.24-.14,.46-.31,.65-.52,.23-.24,.44-.53,.61-.88l5.04-10.13c-2.89-1.56-5.46-3.12-7.6-4.68Z"/><path class="g" d="M52.43,62.11c.86,3.3,2.02,5.95,3.48,7.95,1.46,2,3.14,3.42,5.05,4.27,1.91,.84,3.89,1.26,5.94,1.26s3.88-.29,5.49-.85c1.62-.57,2.99-1.27,4.13-2.12,1.14-.84,2.01-1.74,2.63-2.7,.62-.96,.92-1.82,.92-2.59s-.29-1.39-.85-1.84c-.57-.45-1.56-.68-2.97-.68-.82,0-1.7,.05-2.63,.14-.93,.09-1.85,.08-2.76-.03-.91-.11-1.79-.4-2.63-.85-.84-.46-1.58-1.24-2.22-2.36-.64-1.12-1.15-2.63-1.54-4.54-.1-.5-.19-1.05-.26-1.63-4.31-1.8-8.67-3.49-13.07-5.04,.04,4.6,.47,8.48,1.29,11.63Z"/><path class="g" d="M17.75,50.02c-.59,.98-1.24,1.72-1.94,2.22-.71,.5-1.35,.96-1.95,1.36-.59,.41-.89,1.09-.89,2.05,0,.46,.25,.85,.75,1.19,.5,.34,1.17,.63,2.01,.85,.84,.23,1.8,.4,2.87,.51,1.07,.11,2.17,.17,3.31,.17s2.17-.06,3.24-.17c1.07-.11,2.02-.29,2.87-.51,.84-.23,1.51-.51,2.01-.85,.5-.34,.75-.74,.75-1.19,0-.96-.3-1.64-.89-2.05-.59-.41-1.24-.86-1.94-1.36-.71-.5-1.35-1.24-1.95-2.22-.01-.02-.02-.05-.03-.07-2.63,.06-5.24-.33-7.74-1.15-.13,.47-.29,.89-.49,1.22Z"/><path class="f" d="M68.23,11.73c-.3-.43-.82-.8-1.57-1.09-.75-.3-1.76-.51-3.04-.65s-2.89-.21-4.85-.21h-1.71c-1.37,0-2.62,.39-3.75,1.16-1.14,.77-2,1.77-2.59,3l-5.05,10.56-3.28,6.85-3.42-6.31-6.82-12.6c-.5-.96-1.16-1.64-1.98-2.05-.82-.41-1.8-.61-2.94-.61h-3.48c-.98,0-1.98,.06-2.99,.14-1.63,.14-3.3,.38-5.03,.74-1.15,.24-2.25,.58-3.31,.97-1.54,.56-3,1.25-4.37,2.11-1.11,.69-2.11,1.51-3.04,2.44-1.02,1.02-1.93,2.18-2.73,3.49-1.52,2.5-2.29,5.64-2.29,9.42,0,.96,.17,1.81,.51,2.56,.34,.75,.81,1.4,1.4,1.95,.42,.38,.88,.68,1.36,.93,.2,.1,.4,.22,.62,.3,.73,.27,1.46,.41,2.19,.41,.77,0,1.52-.15,2.25-.44,.73-.3,1.38-.75,1.95-1.37,.57-.61,1.02-1.4,1.36-2.36,.34-.96,.51-2.12,.51-3.48s-.01-2.66-.03-4.03c-.02-1.36,.04-2.6,.21-3.72,.16-1.11,.45-2.02,.89-2.73,.43-.71,1.1-1.06,2.01-1.06s1.71,.47,2.39,1.4c.68,.93,1.02,2.67,1.02,5.22v22.66c0,1.41-.14,2.55-.4,3.45,2.5,.82,5.11,1.21,7.74,1.15-.57-.98-.86-2.51-.86-4.61V27.6l10.45,18.84c.18,.31,.38,.58,.59,.8,.23,.24,.49,.44,.77,.59,.55,.3,1.11,.44,1.71,.44,.64,0,1.22-.15,1.74-.44,.24-.14,.46-.31,.65-.52,.23-.24,.44-.53,.61-.88l5.04-10.13,4.44-8.92v22.39c0,.24,0,.46,0,.7,4.41,1.55,8.76,3.24,13.07,5.04-.21-1.62-.32-3.53-.32-5.74V23.09c0-.75,.04-1.4,.1-2,.11-1.12,.32-2.02,.65-2.64,.5-.96,1.05-1.67,1.64-2.15,.59-.48,1.14-.89,1.64-1.23,.5-.34,.75-.94,.75-1.81,0-.59-.15-1.1-.44-1.54Z"/><path class="e" d="M354.51,73.8c-.82,0-1.81,.14-2.97,.41-1.16,.27-2.29,.66-3.38,1.16-1.09,.5-2.03,1.1-2.8,1.81-.77,.71-1.16,1.47-1.16,2.29,0,.91,.19,1.46,.58,1.64,.39,.18,.84,.38,1.36,.58,.52,.21,1.01,.59,1.47,1.16,.46,.57,.75,1.67,.89,3.31v7.99c-.27,1.05-.69,2-1.26,2.87-.57,.87-1.22,1.6-1.95,2.22-.73,.61-1.49,1.08-2.29,1.4-.8,.32-1.56,.48-2.29,.48-1,0-1.83-.33-2.49-.99-.66-.66-.99-1.72-.99-3.17v-17.14c0-2.23-.48-3.79-1.43-4.68-.96-.89-2.62-1.33-4.98-1.33-.82,0-1.81,.14-2.97,.41-1.16,.27-2.29,.66-3.38,1.16s-2.03,1.1-2.8,1.81c-.77,.71-1.16,1.47-1.16,2.29,0,.91,.19,1.46,.58,1.64,.39,.18,.84,.38,1.37,.58,.52,.21,1.01,.59,1.47,1.16,.45,.57,.75,1.67,.89,3.31v12.36c0,.42,.02,.83,.04,1.23,6.09,2.74,12.26,5.57,18,8.55,2.1-1.15,3.99-2.74,5.66-4.8,0,2.55,.5,4.31,1.5,5.29,.94,.92,2.58,1.4,4.89,1.46-3.05-11.9-.48-25.49,5.13-34.46-.16-.24-.33-.46-.53-.65-.96-.89-2.62-1.33-4.98-1.33Z"/><path class="g" d="M354.9,110.24c.15,0,.28,.01,.43,.01,1.37,0,2.65-.21,3.86-.61,1.21-.41,2.25-.92,3.14-1.54,.89-.61,1.59-1.25,2.12-1.91,.52-.66,.78-1.22,.78-1.67,0-.59-.1-1.02-.31-1.3-.21-.27-.47-.47-.78-.58-.32-.11-.67-.23-1.06-.34-.39-.11-.74-.34-1.06-.68-.32-.34-.58-.85-.79-1.54-.21-.68-.31-1.64-.31-2.87v-17.41c0-1.77-.3-3.1-.9-4.03-5.61,8.97-8.17,22.57-5.13,34.46Z"/><path class="f" d="M327.51,107.35c1.8,1.89,4.36,2.83,7.68,2.83,2.73,0,5.2-.58,7.41-1.74,.08-.04,.16-.1,.25-.15-5.73-2.98-11.91-5.82-18-8.55,.17,3.38,1.05,5.92,2.66,7.61Z"/><path class="h" d="M353.9,71.96c.09-.02,.19-.02,.27-.04,1.46-.3,2.81-.69,4.06-1.19s2.41-1.07,3.48-1.71c1.07-.64,2.08-1.27,3.04-1.91,.64-.41,1.16-.61,1.57-.61,.68,0,1.04,.52,1.08,1.53,1.77-1.1,3.66-1.82,5.63-2.05,3.21-.38,5.21,5.76,7.2,12.06h2.75c1.18,0,2.04-.26,2.56-.79,.52-.52,.8-1.09,.82-1.71,.02-.61-.19-1.18-.65-1.71-.46-.52-1.09-.79-1.91-.79-.5,0-.96,.09-1.37,.27l-2.53,.61v-8.53c0-4.37-1.8-6.55-5.39-6.55-1.27,0-2.44,.22-3.48,.65-1.05,.43-2.07,.91-3.07,1.43-1,.52-2,1-3,1.43-1,.43-2.09,.65-3.28,.65-1.32,0-2.5-.13-3.55-.38-1.05-.25-2.06-.53-3.04-.85-.98-.32-1.95-.6-2.9-.85-.96-.25-2-.38-3.14-.38-2.46,0-4.31,.61-5.56,1.84-1.25,1.23-1.87,2.58-1.84,4.06,0,.41,.06,.8,.17,1.19,1.03,.46,2.06,.92,3.08,1.39,2.65,1.22,5.93,1.99,9.01,2.92Z"/><path class="h" d="M349.39,72.36c1.63,0,3.12-.14,4.51-.4-3.08-.94-6.37-1.7-9.01-2.92-1.02-.47-2.05-.93-3.08-1.39,.27,1.02,.86,1.98,1.78,2.87,1.27,1.23,3.21,1.84,5.8,1.84Z"/><path class="g" d="M386.9,103.15c-.3-.64-.79-.96-1.47-.96-.37,0-.71,.09-1.02,.27-.63,.31-1.17,.48-1.62,.53-.07,0-.15,.02-.22,.02-1.09,0-1.81-.75-2.15-2.25-.24-1.06-.39-2.4-.46-4-.03-.67-.05-1.38-.05-2.15v-16.59h.32c-1.98-6.3-3.99-12.44-7.2-12.06-1.97,.23-3.86,.95-5.63,2.05,0,.06,.02,.11,.02,.18v5.8h-2.8c-.68,0-1.21,.21-1.57,.61-.36,.41-.56,.86-.58,1.37,0,.05,0,.11,0,.16,.02,.44,.18,.85,.5,1.24,.36,.43,.91,.65,1.64,.65h2.8v22.19c0,1.77,.26,3.27,.79,4.47,.52,1.21,1.23,2.18,2.12,2.94,.89,.75,1.89,1.3,3,1.64,1.11,.34,2.26,.51,3.45,.51,.74,0,1.47-.07,2.2-.18,.38-.06,.77-.11,1.15-.2,1.09-.25,2.1-.59,3.04-1.02,.38-.17,.71-.37,1.05-.56,.49-.29,.95-.58,1.34-.91,.66-.55,1.13-1.11,1.4-1.71,.27-.73,.26-1.41-.03-2.05Z"/><path class="h" d="M402.5,94.24v-16.28h3.14c1.32,0,2.24-.32,2.76-.96,.52-.64,.75-1.31,.68-2.01-.07-.7-.41-1.3-1.02-1.77-.61-.48-1.42-.53-2.42-.17l-3.14,1.02v-5.53c0-.77-.19-1.34-.58-1.71-.39-.36-.9-.55-1.54-.55-.82,0-1.73,.32-2.73,.96l-9.35,6.08c-.68,.45-1.14,.94-1.36,1.47-.23,.52-.26,1.01-.1,1.47,.16,.46,.47,.83,.92,1.13,.45,.3,1,.44,1.64,.44,.23,0,.41,.06,.55,.17,.14,.11,.25,.42,.34,.92,.09,.5,.16,1.27,.21,2.32,.04,1.05,.07,2.5,.07,4.37v6.96c5.18,1.94,9.06,2.31,11.95,1.67Z"/><path class="g" d="M391.31,104.62c.5,1.21,1.18,2.18,2.05,2.94,.86,.75,1.84,1.3,2.94,1.64,1.09,.34,2.21,.51,3.34,.51s2.17-.13,3.24-.38c1.07-.25,2.05-.59,2.94-1.02,.89-.43,1.66-.92,2.32-1.47,.66-.55,1.1-1.11,1.33-1.71,.32-.73,.33-1.41,.03-2.05-.3-.64-.76-.96-1.4-.96-.36,0-.71,.09-1.02,.27-.73,.36-1.34,.55-1.84,.55-1.14,0-1.88-.75-2.22-2.25-.34-1.5-.51-3.55-.51-6.14v-.31c-2.89,.65-6.76,.27-11.95-1.67v7.58c0,1.77,.25,3.27,.75,4.47Z"/></g></g></g></svg>