<?xml version="1.0" standalone="no"?>
<!DOCTYPE svg PUBLIC "-//W3C//DTD SVG 1.1//EN" "http://www.w3.org/Graphics/SVG/1.1/DTD/svg11.dtd">
<svg xmlns="http://www.w3.org/2000/svg" viewBox="0 0 199.59 205.19" width="199.58999633789062" height="205.19000244140625"><defs><style>.d{fill:#fbd9e8;}.e{fill:#e985b6;}.f{fill:#fff;}.g{fill:#f38c20;}.h{fill:#ef4723;}.i{fill:#9d933d;}.j{fill:#231f20;}.k{fill:#3a649f;}</style></defs><g id="a"/><g id="b"><g id="c"><g><path class="d" d="M99.8,0C44.68,0,0,44.68,0,99.8v105.39H199.59V99.8C199.59,44.68,154.91,0,99.8,0Z"/><path class="f" d="M81.09,64.76c.32,.04,.53,.08,.73,.08,2.35-.07,4.61,.48,6.84,1.12,1.8,.52,3.6,1.05,5.39,1.6,.88,.27,1.74,.62,2.6,.95,1.33,.52,2.67,1.05,3.99,1.61,1.13,.48,2.23,1,3.35,1.5,.49,.22,1,.42,1.49,.63,.09,.04,.18,.11,.35,.21-.52,.09-.93,.16-1.35,.22-1.96,.31-3.92,.65-5.88,.92-3.21,.43-6.41,.22-9.6-.21-2.82-.37-5.64-.8-8.4-1.5-.06-.02-.12-.02-.23-.03,.03,.08,.04,.14,.08,.18,.93,1.03,1.55,2.24,2.1,3.5,.88,2.03,1.76,4.06,2.56,6.12,.59,1.52,1.06,3.09,1.57,4.64,.04,.13,.05,.27,.1,.53-1.65-1.39-3.09-2.84-4.51-4.31-1.42-1.47-2.74-3.04-4.17-4.63-.04,.22-.08,.36-.08,.5-.07,1.08-.38,2.1-.82,3.07-.73,1.62-1.48,3.24-2.22,4.86-.05,.11-.13,.21-.22,.35-1.18-3.51-2.16-7.03-3-10.67-.33,.21-.59,.37-.85,.55-2.02,1.38-4.02,2.79-6.06,4.13-1.19,.78-2.45,1.47-3.68,2.18-1.5,.86-3,1.71-4.51,2.57-1.13,.64-2.25,1.29-3.38,1.94-.12,.07-.24,.15-.37,.21-.19,.09-.38,.23-.61,.15,3.71-6.16,8.17-11.73,12.88-17.09-.88-.25-1.77-.47-2.64-.74-1.73-.54-3.45-1.11-5.11-1.86-2.46-1.12-4.9-2.27-7.35-3.42-2.38-1.12-4.64-2.44-6.82-3.9-.38-.25-.74-.53-1.2-.86,.21-.02,.31-.04,.41-.03,1.99,.07,3.98,.08,5.96,.23,5.28,.39,10.56,.76,15.79,1.61,.52,.08,1.02,.24,1.53,.36,.26,.06,.52,.12,.86,.2-.07-.42-.09-.78-.18-1.13-.6-2.42-.73-4.9-1.03-7.35-.3-2.46-.62-4.91-.97-7.37-.16-1.1-.4-2.18-.59-3.28-.06-.37-.06-.76-.1-1.22,.14,.1,.23,.15,.3,.21,1.62,1.53,3.2,3.09,4.59,4.84,.78,.98,1.48,2.02,2.16,3.07,.84,1.29,1.62,2.61,2.4,3.94,.21,.36,.32,.79,.47,1.19,.07,.19,.13,.39,.23,.68,.42-.5,.81-.92,1.15-1.37,2.56-3.42,5.49-6.51,8.7-9.33,1.38-1.21,2.89-2.29,4.34-3.42,.25-.19,.51-.37,.82-.6-.02,.16-.03,.24-.05,.31-.67,2.25-1.32,4.51-2.01,6.76-.75,2.45-1.91,4.71-3.24,6.89-.79,1.29-1.63,2.54-2.45,3.81-.09,.14-.19,.28-.34,.51,.18-.03,.27-.03,.34-.07,.93-.45,1.85-.91,2.77-1.37,.84-.41,1.69-.82,2.52-1.24,1.05-.53,2.08-1.08,3.14-1.6,1.01-.5,2.04-.97,3.05-1.45,.04-.02,.09-.01,.21-.03-.16,.18-.26,.3-.38,.42-1.95,1.98-3.88,3.98-5.88,5.92-.88,.86-1.9,1.58-2.85,2.38-.72,.6-1.42,1.22-2.12,1.84-.16,.14-.29,.33-.52,.59Z"/><path class="f" d="M137.59,96.8c-.21-.25-.32-.43-.47-.56-1.73-1.6-2.96-3.56-4.11-5.59-.93-1.63-1.84-3.27-2.73-4.92-.44-.81-.81-1.66-1.19-2.5-.59-1.31-1.17-2.61-1.73-3.93-.47-1.13-.9-2.28-1.35-3.41-.2-.5-.42-1-.62-1.5-.04-.1-.05-.2-.11-.4,.43,.3,.78,.54,1.12,.79,1.62,1.15,3.26,2.27,4.85,3.45,2.6,1.93,4.73,4.33,6.72,6.86,1.76,2.24,3.47,4.51,4.95,6.95,.03,.05,.08,.1,.14,.18,.03-.08,.07-.13,.07-.18,.06-1.38,.46-2.69,.95-3.97,.79-2.07,1.58-4.13,2.44-6.17,.64-1.5,1.41-2.95,2.12-4.42,.06-.12,.15-.23,.3-.45,.2,2.15,.22,4.19,.21,6.23,0,2.04-.17,4.09-.26,6.23,.18-.13,.3-.2,.41-.3,.8-.72,1.74-1.23,2.73-1.63,1.66-.65,3.32-1.28,4.98-1.92,.11-.04,.24-.06,.4-.09-1.61,3.34-3.37,6.54-5.31,9.73,.38,.08,.68,.15,.99,.2,2.41,.43,4.82,.82,7.22,1.28,1.4,.27,2.78,.66,4.16,1.02,1.67,.43,3.34,.88,5.01,1.32,1.26,.33,2.52,.65,3.78,.98,.14,.04,.28,.06,.41,.1,.2,.07,.43,.1,.55,.32-6.96,1.81-14.05,2.68-21.15,3.21,.46,.79,.94,1.57,1.37,2.38,.86,1.6,1.69,3.21,2.35,4.9,.98,2.52,1.92,5.05,2.86,7.58,.92,2.46,1.61,4.99,2.15,7.56,.09,.45,.16,.9,.26,1.46-.16-.13-.24-.19-.31-.26-1.37-1.44-2.79-2.84-4.1-4.33-3.5-3.97-7.02-7.93-10.17-12.19-.31-.42-.56-.88-.85-1.33-.14-.22-.28-.45-.47-.75-.25,.35-.48,.63-.66,.93-1.26,2.15-2.9,4.01-4.4,5.98-1.5,1.97-2.99,3.95-4.46,5.95-.66,.89-1.24,1.84-1.87,2.76-.22,.31-.49,.58-.78,.94-.03-.17-.06-.26-.06-.36-.08-2.22-.13-4.45,.11-6.67,.13-1.24,.35-2.48,.6-3.71,.31-1.51,.67-3,1.04-4.49,.1-.41,.33-.79,.5-1.18,.08-.19,.18-.37,.31-.64-.66,.06-1.22,.09-1.78,.17-4.23,.66-8.48,.81-12.74,.59-1.84-.1-3.66-.38-5.49-.59-.31-.03-.62-.09-1.01-.15,.13-.1,.19-.15,.25-.19,2.05-1.15,4.1-2.31,6.17-3.43,2.25-1.22,4.66-2.03,7.13-2.66,1.46-.37,2.94-.67,4.42-1.01,.17-.04,.34-.07,.6-.12-.15-.1-.21-.17-.29-.19-.98-.32-1.96-.64-2.94-.96-.89-.29-1.78-.6-2.67-.88-1.12-.36-2.24-.69-3.36-1.05-1.07-.35-2.13-.73-3.2-1.1-.04-.01-.07-.05-.18-.12,.23-.02,.4-.03,.57-.04,2.78-.05,5.56-.13,8.34-.12,1.23,0,2.47,.2,3.7,.3,.93,.07,1.87,.12,2.81,.17,.22,.01,.44-.03,.78-.06Z"/><g><g><path class="k" d="M63.62,72.3c-.22,.2-.44,.4-.64,.62,.18,.04,.35,.09,.53,.13,.04-.25,.07-.5,.11-.74Z"/><path class="k" d="M86.77,87.41c-.17,.4-.33,.78-.5,1.16,.35,.11,.69,.23,1.03,.35-.15-.46-.3-.92-.45-1.38-.01-.04-.04-.07-.08-.13Z"/><path class="k" d="M67.1,72.32c.67-.98,1.21-2.02,2.02-2.92,.12-.13,.22-.24,.33-.36-.88,.35-1.73,.75-2.6,1.13-.02,0-.04,.02-.06,.03,.06,.45,.13,.9,.19,1.35,.04,.26,.06,.52,.13,.79Z"/><path class="k" d="M63.53,74.73c-.06-.05-.08-.09-.12-.11-.44-.21-.87-.43-1.31-.65-.11,.15-.22,.29-.33,.44-.15,.21-.3,.43-.45,.63,.59-.09,1.18-.17,1.77-.26,.13-.02,.27-.04,.44-.06Z"/><path class="k" d="M152.08,61.22c-.14-.2-.3-.39-.47-.56-1.26-1.31-2.49-2.64-3.61-4.04-1.15-1.44-2.33-2.87-3.47-4.32-1.14-1.45-2.41-2.82-3.74-4.15-.53-.53-1.08-1.04-1.62-1.57-.41-.4-.75-.83-.95-1.33-.3-.73-1.23-1.27-2.15-1.26-.71,0-1.41,.07-2.08,.29-.51,.17-.83,.45-1.01,.89-.15,.36-.35,.7-.53,1.05-.27,.52-.56,1.03-.81,1.56-.51,1.07-1.12,2.09-1.87,3.04,.38-.22,.77-.42,1.16-.63,.11-.06,.25-.18,.36-.07,.06,.06,.05,.23-.01,.32-.27,.43-.58,.85-.86,1.28-.9,1.36-2.06,2.56-3.2,3.78-.03,.03-.06,.07-.13,.14,2.32-.53,4.61-.95,6.95-1.02,.09,.18-.04,.21-.14,.25-.77,.35-1.54,.71-2.32,1.05-1.39,.61-2.79,1.2-4.18,1.8-.03,.01-.06,.04-.13,.08,.08,.65,.16,1.33,.25,2,.09,.68,.19,1.35,.28,2.03,.09,.66,.13,1.33,.1,2-.5-.44-.72-.98-1.03-1.49-.31-.52-.62-1.05-.89-1.59-.26-.53-.47-1.08-.72-1.64-.04,.06-.07,.1-.08,.13-.28,.87-.59,1.74-.84,2.62-.3,1.06-.55,2.12-.82,3.19-.09,.34-.2,.68-.31,1.02-.01,.05-.07,.08-.15,.18-.07-.12-.12-.18-.14-.25-.28-.8-.41-1.62-.53-2.45-.14-.98-.24-1.97-.25-2.96-.01-.72-.03-1.45-.05-2.17,0-.04-.01-.08-.03-.17-.08,.04-.15,.08-.22,.12-.16,.16-.32,.31-.49,.47-.48,.45-.97,.89-1.47,1.32-.71,.61-1.4,1.24-2.14,1.81-2.18,1.7-4.49,3.23-7.18,4.34-.62,.25-1.25,.47-1.9,.66,.11,0,.21,0,.32-.01,.57-.01,1.14-.14,1.73-.09-.09,.1-.19,.18-.31,.22-1.37,.58-2.7,1.21-3.95,1.96-.89,.53-1.8,1.01-2.77,1.43-.07,.03-.13,.08-.22,.13,.26,.13,.49,.26,.72,.36,1.54,.7,2.8,1.67,3.93,2.76,.08,.07,.18,.16,.06,.24-.05,.04-.19,.03-.27,0-.58-.19-1.17-.37-1.74-.58-1.24-.47-2.54-.77-3.84-1.07-.08-.02-.16-.03-.28-.04,.05,.38,.11,.72,.15,1.07,.07,.62,.16,1.25,.2,1.88,.03,.44,.02,.88-.03,1.31-.08,.64-.23,1.28-.35,1.93-.03,.14-.06,.27-.12,.4-.03,.06-.11,.11-.18,.13-.03,0-.13-.07-.15-.12-.06-.13-.11-.26-.14-.4-.2-.76-.51-1.49-.86-2.22-.49-1-.93-2.01-1.39-3.01-.04-.09-.08-.17-.13-.27-.28,.7-.53,1.37-.81,2.04-.37,.88-.88,1.68-1.17,1.87-.02-.04-.04-.08-.04-.12,0-.35,0-.7-.02-1.05-.06-.73-.14-1.46-.22-2.19-.07-.64-.16-1.27-.24-1.9-.03-.25-.03-.5-.05-.76-1.03-.01-2-.1-2.97-.25-1.99-.32-2.52-.44-2.83-.7,.9-.24,1.78-.48,2.66-.71,.89-.24,1.79-.48,2.7-.73-.27-.25-.53-.5-.8-.74-.77-.05-1.54-.1-2.31-.14-1.08-.07-2.17-.13-3.25-.21-1.17-.09-2.33-.2-3.5-.29-.55-.04-1.1-.06-1.65-.08-.89-.02-1.78-.04-2.67-.04-1.87,0-3.74,.11-5.6,.29-1.74,.17-3.39,.57-4.99,1.09-.07,.25-.14,.5-.21,.76-.07,.26-.12,.52-.18,.78-.06,.26-.11,.52-.17,.79s-.13,.52-.19,.78c-.07,.26-.13,.52-.2,.78-.07,.26-.15,.52-.22,.78-.08,.26-.15,.51-.24,.8,.36-.05,.68-.1,1-.13,.25-.03,.51-.05,.76-.04,.83,0,1.66,.01,2.48-.12,.13-.02,.26,0,.39,.02l.04,.08c-.1,.08-.2,.18-.31,.24-.7,.39-1.39,.79-2.12,1.15-.94,.47-1.91,.9-2.92,1.37,.02,.38,.06,.82,.07,1.25,.02,.45,.01,.9,.03,1.34,.01,.44,.05,.87,.05,1.31,0,.42,.07,.86-.06,1.27l-.1,.03c-.08-.09-.17-.17-.23-.26-.15-.25-.29-.5-.43-.75-.49-.87-.98-1.74-1.47-2.6,0-.02-.03-.02-.08-.05-.24,.32-.48,.63-.71,.94-.78,1.06-1.57,2.12-2.34,3.19-.21,.29-.34,.62-.51,.93-.03,.06-.04,.12-.08,.18-.09,.13-.24,.12-.32-.01-.05-.09-.07-.18-.1-.27-.24-.76-.21-1.53-.12-2.29,.11-.92,.28-1.84,.43-2.75,.04-.25,.09-.5,.14-.76-.65-.14-1.28-.29-1.91-.42-.38-.08-.77-.16-1.15-.24-.59,.89-1.04,1.83-1.46,2.78-.55,1.25-.99,2.52-1.24,3.83-.13,.64-.33,1.28-.46,1.92-.15,.71-.27,1.43-.39,2.15-.17,1-.32,2.01-.51,3.01-.14,.71-.32,1.4-.5,2.1-.4,1.54-.8,3.07-1.2,4.61-.48,1.84-1.3,3.58-2.2,5.3-.57,1.09-1.38,2.05-2.26,2.97-.61,.64-1.27,1.25-1.94,1.86-.57,.52-1.16,1.03-1.76,1.53-.37,.31-.77,.58-1.15,.88-.12,.09-.23,.18-.32,.29-.1,.12-.1,.26,.01,.37,.1,.1,.23,.13,.4,.1,1.1-.16,2.12-.49,3.06-.98,.41-.21,.84-.41,1.24-.64,.89-.51,1.63-1.15,2.35-1.82,.49-.46,.83-1,1.21-1.53,.83-1.14,1.45-2.36,1.96-3.62,.7-1.69,1.36-3.38,1.95-5.1,.01-.04,.03-.08,.09-.12,.02,.26,.05,.52,.07,.79,.04,.48,.08,.97,.11,1.45,.03,.48,.05,.97,.08,1.46,.02,.4,.06,.79,.06,1.19,0,1.54-.14,3.07-.43,4.59-.24,1.31-.55,2.61-1.06,3.87-.41,1.01-.77,2.04-1.02,3.09-.15,.64-.25,1.29-.36,1.94-.22,1.36-.18-.46-.17,.9,0,.72,.35,3.86,.41,4.62,.06,.73,.11,1.46,.15,2.2,.06,.96,.1,1.92,.29,2.87,.1,.48,.15,.96,.22,1.47,1.06,.06,2.09,.13,3.14,.19,0-.39,0-.77,0-1.15,0-.12-.03-.25-.03-.37,.02-1.19,.01-2.39,.07-3.58,.05-.96,.18-1.92,.28-2.88,.06-.56,1.28-4.45,2.06-6.38,.24-.59,.57-1.14,1.04-1.63,.72-.75,1.43-1.51,2.2-2.23,.49-.46,1.06-.86,1.61-1.28,.26-.21,.54-.4,.81-.6,.08-.06,.18-.12,.3-.2-.02,.31-.02,.57-.06,.82-.09,.65-.17,1.3-.29,1.94-.12,.64-.3,1.26-.45,1.9-.16,.72-.29,1.44-.46,2.16-.13,.56-.38,4.93-.39,5.96,0,.66-.08,1.33-.09,1.99,0,.48,.02,.95,.07,1.43,.08,.72,.19,1.44,.29,2.16,.12,.85,.24,1.7,.36,2.57,.96,0,1.89,.17,2.86-.01,0-.07,.02-.15,.02-.24,0-.51,0-1.03,0-1.54,.02-1.25,.03-2.49,.07-3.74,.03-.9,.08-1.8,.13-2.7,.04-.66,.06-1.32,.13-1.98,.12-1.19,1.51-3.23,2-4.3,.59-1.26,1.14-2.53,1.92-3.73,.47-.72,.99-1.42,1.46-2.15,1.25-1.91,2.43-3.85,3.35-5.89,.55-1.21,.89-2.47,1.07-3.76,.2-1.44,.21-2.87,.16-4.32-.02-.52-.03-1.04-.07-1.56-.09-1.11-.18-2.22-.41-3.32-.01-.06,0-.12-.02-.21,.47-.07,.94-.16,1.4-.22,.76-.1,1.52-.05,2.28-.01,.73,.04,1.44,.12,2.15,.24v-.04c.09-.67,.18-1.35,.26-2-.07-.05-.1-.07-.13-.08-1.4-.6-2.79-1.2-4.19-1.8-.78-.34-1.55-.7-2.32-1.05-.09-.04-.23-.07-.14-.25,2.34,.08,4.62,.5,6.95,1.02-.07-.08-.1-.11-.13-.14-1.14-1.22-2.3-2.42-3.2-3.78-.29-.43-.59-.85-.86-1.28-.06-.09-.07-.26-.01-.32,.11-.11,.25,0,.36,.07,.49,.27,1,.52,1.47,.81,1.63,.98,3.24,1.97,4.86,2.95,.11,.07,.22,.13,.36,.22,0-.14,0-.22,0-.3-.12-1.05-.24-2.1-.35-3.15-.05-.49-.11-.98-.14-1.46-.04-.51-.06-1.02-.08-1.53,0-.1-.04-.22,.2-.3,.74,1.15,1.38,2.34,1.98,3.54,.61,1.2,1.07,2.45,1.46,3.74,.28-.11,.51-.21,.75-.31,1-.42,2.05-.76,3.11-1.08,.08-.02,.17-.02,.26-.03l.04,.08c-.68,.51-1.43,.95-2.1,1.46-.68,.53-1.35,1.06-2.05,1.61,.24,.25,.44,.49,.67,.7,1.07,1,1.98,2.09,2.85,3.21,.31,.39,.54,.82,.81,1.23,.05,.08,.09,.16-.09,.22-.72-.7-1.56-1.29-2.46-1.83-.9-.55-1.68-1.23-2.68-1.71-.01,.08-.03,.12-.03,.17-.02,.72-.04,1.45-.05,2.17,0,.36-.03,.71-.06,1.07,.77,.36,1.53,.74,2.29,1.12,2.06,1.04,4.21,1.93,6.45,2.68,1.9,.64,3.8,1.25,5.72,1.82,.16,.05,.32,.1,.48,.13,.56,.09,.92,.41,1.28,.74,.07,.07,.11,.17,.14,.26,.24,.69,.5,1.39,.72,2.09,.37,1.17,.69,2.35,.82,3.56,.13,1.19,.3,2.37,.44,3.55,.09,.77,.17,1.55,.26,2.32,.09,.83,.21,1.67,.29,2.5,.07,.69,.86,6.33,.86,6.33,.07,.78,.16,1.56,.24,2.35,.11,1.01,.2,2.02,.33,3.03,.1,.79,.25,1.57,.37,2.36,.01,.09,.04,.17,.07,.28,1.33,.02,2.64,.05,3.98,.07,0-.24,.01-.5,0-.76-.03-.48-.09-.97-.12-1.45-.05-.81-.09-1.62-.13-2.43-.02-.38-.05-.76-.06-1.14-.03-1.02-.05-2.03-.06-3.05-.03-2-.05,1.53-.06-.47-.03-4.21-.04-8.41-.07-12.62,0-1.09-.03-2.18-.04-3.27,0-.08,0-.15,.05-.24,.04,.12,.09,.24,.11,.37,.2,.99,.4,1.99,.58,2.98,.15,.81,.29,1.62,.41,2.44,.08,.51,.13,1.02,.18,1.53,.06,.68,.11,1.36,.17,2.03,.03,.41,.05,.83,.09,1.24,.09,.84,.19,1.69,.28,2.53,.06,.5,1.55,6.86,1.61,7.55,.04,.48,.06,.97,.13,1.45,.06,.4,.17,.8,.26,1.2,.08,.37,.17,.75,.26,1.12,.01,.05,.04,.1,.07,.17,.29-.07,.57-.14,.86-.19,.16-.03,.33-.06,.5-.06,.55,.02,1.11,.07,1.69,.1-.03-.28-.06-.56-.08-.84-.04-.41-.09-.83-.12-1.24-.06-.71-.12-1.43-.16-2.14-.02-.29-.02-.58-.02-.88-.02-.98-.04-1.96-.07-2.95-.02-.82-.05,.69-.06-.13-.02-1.36-.05,.47-.04-.89,0-.86,.05-1.72,.13-2.57,.11-1.15,.25-2.3,.42-3.45,.19-1.31,.43-2.62,.66-3.93,.19-1.08,.41-2.16,.6-3.24,.15-.85,.28-1.7,.41-2.55,.22-1.53,.43-3.07,.96-4.56,.3-.83,.63-1.65,.95-2.47,.34-.87,.54-1.76,.68-2.67,.18-1.18,.34-2.37,.52-3.55,.04-.25,.08-.49,.13-.74-.58,.12-1.16,.23-1.73,.35-.63,.13-1.25,.28-1.91,.42,.05,.26,.1,.51,.14,.76,.15,.92,.32,1.83,.43,2.75,.09,.76,.12,1.53-.12,2.29-.03,.09-.05,.19-.1,.27-.08,.14-.23,.14-.32,.01-.04-.05-.05-.12-.08-.18-.17-.31-.3-.64-.51-.93-.77-1.07-1.56-2.13-2.34-3.19-.23-.31-.47-.63-.71-.94-.04,.03-.07,.04-.08,.05-.49,.87-.98,1.73-1.47,2.6-.14,.25-.28,.5-.43,.75-.06,.09-.15,.18-.23,.26l-.1-.03c-.13-.42-.05-.85-.06-1.27,0-.44,.03-.87,.05-1.31,.01-.45,0-.9,.03-1.34,.02-.43,.05-.87,.07-1.25-1.01-.47-1.98-.9-2.92-1.37-.72-.36-1.41-.76-2.12-1.15-.12-.07-.21-.16-.31-.24l.04-.08c.13,0,.27-.04,.39-.02,.82,.13,1.65,.12,2.48,.12,.25,0,.51,.02,.76,.04,.32,.03,.64,.09,1,.13-.09-.29-.17-.55-.24-.8-.08-.26-.15-.52-.22-.78-.07-.26-.13-.52-.2-.78-.06-.26-.13-.52-.19-.78-.06-.26-.12-.52-.17-.79-.06-.26-.11-.52-.18-.78-.07-.26-.14-.52-.21-.78-.07-.26-.16-.52-.23-.78-.07-.25-.21-.49-.19-.77,.34,.12,.8,.6,2.58,2.59,.81,.91,1.35,1.94,2.02,2.92,.07-.27,.09-.53,.13-.79,.24-1.71,.47-3.42,.71-5.14,.05-.35,.13-.69,.21-1.04,.02-.09,.1-.18,.15-.27,.31,.23,.46,.56,1.21,2.57,.33,.89,.58,1.79,.75,2.71,.17,.9,.28,1.81,.42,2.69,1.02-.24,2.03-.5,3.05-.73,.45-.1,.91-.19,1.37-.28,.28-2.08,.71-4.14,1.35-6.17,.34-1.09,.59-2.21,.88-3.31,.38-1.48,.79-2.95,1.32-4.39,.27-.73,.63-1.43,1.09-2.08,.72-1.01,1.34-2.07,1.89-3.15,.49-.97,1.04-1.92,1.56-2.87,.13-.25,.25-.51,.36-.76,.17-.4,.41-.76,.69-1.1,.14-.17,.32-.26,.56-.23,.28,.04,.56,.08,.84,.14,.78,.17,1.49,.49,2.23,.75,1.13,.4,2.2,.9,3.28,1.4,.78,.36,1.54,.74,2.31,1.11,.23,.11,.45,.23,.69,.32,.96,.35,1.84,.8,2.7,1.28,.41,.23,.83,.45,1.25,.68,.31,.17,.63,.32,1.01,.24,.45-.1,.89-.25,1.18-.59,.32-.37,.35-.77,.07-1.17Z"/><path class="k" d="M122.49,83.72s-.06,.06-.12,.11c.17,.02,.31,.04,.44,.06,1.18,.18,2.37,.34,3.55,.54,.03-.19,.07-.38,.1-.58,.09-.59,.17-1.19,.23-1.79,.01-.11,.03-.23,.05-.34-.05,.02-.1,.04-.15,.06-1.43,.55-2.73,1.29-4.09,1.94Z"/></g><g><path class="e" d="M93.34,69.22c-.88,.24-1.75,.47-2.66,.71,.31,.26,.83,.39,2.83,.7,.97,.15,1.94,.24,2.97,.25,.02,.26,.02,.51,.05,.76,.07,.64,.17,1.27,.24,1.9,.08,.73,.16,1.46,.22,2.19,.03,.35,.02,.7,.02,1.05,0,.04,.03,.08,.04,.12,.29-.2,.8-1,1.17-1.87,.28-.67,.54-1.34,.81-2.04,.05,.1,.09,.18,.13,.27,.46,1,.9,2.02,1.39,3.01,.35,.72,.66,1.45,.86,2.22,.03,.13,.08,.27,.14,.4,.02,.05,.11,.12,.15,.12,.07-.02,.16-.07,.18-.13,.06-.13,.09-.27,.12-.4,.12-.64,.26-1.28,.35-1.93,.06-.43,.06-.87,.03-1.31-.04-.63-.12-1.25-.2-1.88-.04-.35-.09-.69-.15-1.07,.11,.02,.2,.03,.28,.04,1.3,.3,2.6,.61,3.84,1.07,.57,.21,1.16,.4,1.74,.58,.08,.03,.21,.04,.27,0,.12-.08,.02-.17-.06-.24-1.13-1.1-2.4-2.07-3.93-2.76-.23-.11-.46-.23-.72-.36,.08-.05,.14-.1,.22-.13,.96-.42,1.88-.9,2.77-1.43,1.25-.74,2.58-1.38,3.95-1.96,.12-.05,.22-.12,.31-.22-.59-.05-1.15,.08-1.73,.09-.11,0-.21,0-.32,.01-.82,.24-1.65,.44-2.51,.57-.87,.14-1.75,.25-2.63,.36-.22,.03-.44,.02-.67,.02-1.07,0-2.14,0-3.21-.02-1.08-.02-2.16-.06-3.23-.11-.39-.02-.78-.04-1.16-.07,.27,.25,.53,.49,.8,.74-.91,.25-1.8,.49-2.7,.73Z"/><path class="e" d="M122.39,82.14c-.13-.88-.25-1.79-.42-2.69-.17-.92-.42-1.82-.75-2.71-.75-2-.9-2.33-1.21-2.57-.06,.1-.13,.18-.15,.27-.08,.34-.16,.69-.21,1.04-.24,1.71-.48,3.42-.71,5.14-.04,.26-.06,.52-.13,.79-.67-.98-1.21-2.02-2.02-2.92-1.77-1.99-2.23-2.47-2.58-2.59-.02,.28,.13,.52,.19,.77,.07,.26,.15,.52,.23,.78,.07,.26,.15,.52,.21,.78,.07,.26,.12,.52,.18,.78,.06,.26,.11,.52,.17,.79,.06,.26,.13,.52,.19,.78,.07,.26,.13,.52,.2,.78,.07,.26,.15,.52,.22,.78,.08,.26,.15,.51,.24,.8-.36-.05-.68-.1-1-.13-.25-.03-.51-.05-.76-.04-.83,0-1.66,.01-2.48-.12-.13-.02-.26,0-.39,.02l-.04,.08c.1,.08,.2,.18,.31,.24,.7,.39,1.39,.79,2.12,1.15,.94,.47,1.91,.9,2.92,1.37-.02,.38-.06,.82-.07,1.25-.02,.45-.01,.9-.03,1.34-.01,.44-.05,.87-.05,1.31,0,.42-.07,.86,.06,1.27l.1,.03c.08-.09,.17-.17,.23-.26,.15-.25,.29-.5,.43-.75,.49-.87,.98-1.74,1.47-2.6,0-.02,.03-.02,.08-.05,.24,.32,.48,.63,.71,.94,.78,1.06,1.57,2.12,2.34,3.19,.21,.29,.34,.62,.51,.93,.03,.06,.04,.12,.08,.18,.09,.13,.24,.12,.32-.01,.05-.09,.07-.18,.1-.27,.24-.76,.21-1.53,.12-2.29-.11-.92-.28-1.84-.43-2.75-.04-.25-.09-.5-.14-.76,.65-.15,1.28-.29,1.91-.42,.58-.12,1.15-.24,1.73-.35,.06-.33,.11-.66,.17-.99-1.18-.2-2.36-.36-3.55-.54-.13-.02-.27-.04-.44-.06,.06-.05,.08-.09,.12-.11,1.36-.65,2.66-1.39,4.09-1.94,.05-.02,.1-.04,.15-.06,.02-.19,.05-.39,.08-.58-.46,.09-.92,.18-1.37,.28-1.02,.23-2.03,.48-3.05,.73Z"/><path class="e" d="M63.35,77.1c-.05,.26-.1,.51-.14,.76-.15,.92-.32,1.83-.43,2.75-.09,.76-.12,1.53,.12,2.29,.03,.09,.05,.19,.1,.27,.08,.14,.23,.14,.32,.01,.04-.05,.05-.12,.08-.18,.17-.31,.3-.64,.51-.93,.77-1.07,1.56-2.13,2.34-3.19,.23-.31,.47-.63,.71-.94,.04,.03,.07,.04,.08,.05,.49,.87,.98,1.73,1.47,2.6,.14,.25,.28,.5,.43,.75,.06,.09,.15,.18,.23,.26l.1-.03c.13-.42,.05-.85,.06-1.27,0-.44-.03-.87-.05-1.31-.01-.45,0-.9-.03-1.34-.02-.43-.05-.87-.07-1.25,1.01-.47,1.98-.9,2.92-1.37,.72-.36,1.41-.76,2.12-1.15,.12-.07,.21-.16,.31-.24l-.04-.08c-.13,0-.27-.04-.39-.02-.82,.13-1.65,.12-2.48,.12-.25,0-.51,.02-.76,.04-.32,.03-.64,.09-1,.13,.09-.29,.17-.55,.24-.8,.08-.26,.15-.52,.22-.78,.07-.26,.13-.52,.2-.78,.06-.26,.13-.52,.19-.78s.12-.52,.17-.79c.06-.26,.11-.52,.18-.78,.06-.25,.14-.51,.21-.76-.59,.19-1.17,.4-1.75,.62-.03,0-.05,.02-.08,.03-.11,.12-.21,.23-.33,.36-.81,.91-1.35,1.94-2.02,2.92-.07-.27-.09-.53-.13-.79-.06-.45-.13-.9-.19-1.35-.83,.37-1.55,.86-2.25,1.37-.32,.24-.62,.49-.91,.74-.04,.25-.07,.5-.11,.74-.18-.04-.35-.09-.53-.13-.32,.33-.6,.69-.88,1.06,.43,.22,.87,.44,1.31,.65,.04,.02,.06,.06,.12,.11-.17,.02-.31,.04-.44,.06-.59,.09-1.18,.17-1.77,.26-.17,.23-.34,.45-.52,.67-.18,.23-.35,.47-.51,.71,.38,.08,.77,.15,1.15,.24,.63,.13,1.25,.28,1.91,.42Z"/><path class="e" d="M89.95,86.72s.01-.08,.03-.17c1,.48,1.78,1.17,2.68,1.71,.89,.54,1.74,1.14,2.46,1.83,.18-.06,.14-.15,.09-.22-.26-.41-.5-.84-.81-1.23-.87-1.11-1.78-2.21-2.85-3.21-.23-.21-.43-.45-.67-.7,.69-.54,1.36-1.08,2.05-1.61,.67-.52,1.42-.96,2.1-1.46l-.04-.08c-.09,0-.18,0-.26,.03-1.06,.32-2.1,.66-3.11,1.08-.24,.1-.48,.2-.75,.31-.39-1.29-.85-2.54-1.46-3.74-.61-1.2-1.24-2.39-1.98-3.54-.24,.08-.2,.2-.2,.3,.02,.51,.04,1.02,.08,1.53,.04,.49,.09,.98,.14,1.46,.11,1.05,.23,2.1,.35,3.15,0,.08,0,.17,0,.3-.14-.09-.25-.16-.36-.22-1.62-.99-3.24-1.98-4.86-2.95-.48-.29-.98-.54-1.47-.81-.11-.06-.25-.18-.36-.07-.06,.06-.05,.23,.01,.32,.27,.43,.58,.85,.86,1.28,.9,1.36,2.06,2.56,3.2,3.78,.03,.03,.06,.07,.13,.14-2.32-.53-4.61-.95-6.95-1.02-.09,.18,.04,.21,.14,.25,.77,.35,1.54,.71,2.32,1.05,1.39,.61,2.79,1.2,4.19,1.8,.03,.01,.06,.04,.13,.08-.08,.65-.16,1.33-.25,2v.04c.13,.02,.27,.04,.41,.07,.46,.09,.9,.22,1.34,.36,.17-.38,.33-.76,.5-1.16,.04,.06,.07,.1,.08,.13,.15,.46,.3,.92,.45,1.38,.28,.1,.55,.21,.83,.31,.58,.22,1.15,.47,1.71,.73,.02-.36,.05-.71,.06-1.07,.01-.72,.03-1.45,.05-2.17Z"/><path class="e" d="M122.08,58.42c.02,.72,.04,1.45,.05,2.17,.02,.99,.11,1.98,.25,2.96,.12,.83,.26,1.65,.53,2.45,.02,.07,.07,.13,.14,.25,.08-.1,.13-.13,.15-.18,.11-.34,.22-.68,.31-1.02,.28-1.06,.52-2.13,.82-3.19,.25-.88,.55-1.75,.84-2.62,.01-.04,.04-.07,.08-.13,.24,.56,.46,1.11,.72,1.64,.27,.54,.57,1.07,.89,1.59,.3,.51,.53,1.05,1.03,1.49,.03-.68,0-1.34-.1-2-.09-.68-.19-1.35-.28-2.03-.09-.67-.17-1.35-.25-2,.07-.05,.1-.07,.13-.08,1.4-.6,2.79-1.2,4.18-1.8,.78-.34,1.55-.7,2.32-1.05,.09-.04,.23-.07,.14-.25-2.34,.08-4.62,.5-6.95,1.02,.07-.08,.1-.11,.13-.14,1.14-1.22,2.3-2.42,3.2-3.78,.29-.43,.59-.85,.86-1.28,.06-.09,.07-.26,.01-.32-.11-.11-.25,0-.36,.07-.39,.21-.78,.42-1.16,.63-.32,.4-.65,.8-1.02,1.18-.53,.54-1.1,1.06-1.66,1.57-.65,.6-1.31,1.18-1.97,1.77-.67,.6-1.34,1.2-2,1.81-.44,.41-.86,.82-1.29,1.23,.07-.04,.14-.08,.22-.12,.01,.08,.03,.12,.03,.17Z"/></g><g><path class="j" d="M68.23,105.08c.15,.09,.23,.04,.3-.02,.33-.25,.68-.48,.97-.76,1.35-1.28,2.51-2.67,3.48-4.17,.95-1.48,1.62-3.05,2-4.7,.22-.96,.38-1.93,.47-2.91,.09-1.03,.07-2.05,.04-3.08-.03-.69-.1-1.37-.17-2.06-.09-.77-.26-1.52-.77-2.19-.26-.35-.57-.66-.93-.93-.22-.17-.47-.27-.77-.28-.28,0-.51,.18-.52,.41,0,.22,.2,.41,.48,.39,.26-.02,.42,.1,.57,.23,.61,.55,1,1.19,1.1,1.93,.09,.62,.14,1.25,.21,1.87,.11,1.11,.1,2.23,.03,3.34-.06,.9-.22,1.79-.38,2.68-.25,1.42-.77,2.77-1.47,4.07-.81,1.49-1.8,2.89-2.96,4.2-.52,.58-1.01,1.18-1.52,1.77-.05,.06-.09,.13-.14,.2Z"/><path class="j" d="M137.52,46.31c.06,.29,.12,.57,.19,.85,.16,.7,.05,1.38-.35,2.01-.24,.38-.5,.76-.78,1.12-.4,.52-.75,1.07-.99,1.66-.02,.05-.05,.09-.09,.16-.04-.09-.07-.16-.09-.23-.15-.56-.41-1.09-.66-1.63-.42-.9-.8-1.8-1.2-2.71-.07-.16-.12-.32,0-.48,.02-.04,.02-.09,.02-.13,0-.19-.16-.33-.36-.34-.2,0-.37,.1-.39,.28-.02,.17-.01,.35,.02,.53,.04,.2,.1,.4,.18,.59,.35,.8,.67,1.6,1.07,2.38,.39,.77,.67,1.56,.88,2.37,.04,.16,.09,.33,.16,.48,.08,.18,.23,.27,.39,.26,.19-.02,.3-.12,.35-.27,.04-.1,.08-.2,.1-.31,.18-.79,.56-1.51,1.06-2.2,.3-.42,.56-.85,.82-1.29,.23-.38,.33-.8,.35-1.23,.02-.39-.08-.77-.21-1.15-.07-.2-.14-.39-.23-.58-.03-.08-.07-.18-.22-.16Z"/><path class="j" d="M140.37,52.66c-.1,0-.16,0-.22,0-.26,0-.53-.02-.79,0-.18,0-.28,.11-.27,.24,0,.13,.08,.22,.26,.22,.28,0,.56-.04,.85-.07,.1-.01,.2-.05,.33-.09l.17,.31c-.2,.04-.38,.08-.56,.12-.06,.01-.13,.01-.18,.03-.12,.04-.19,.12-.17,.23,.02,.1,.1,.17,.24,.18,.23,.02,.44-.02,.65-.1,.28-.11,.28-.1,.45,.16-.16,.08-.32,.15-.49,.23-.06,.03-.12,.04-.17,.07-.16,.1-.21,.24-.13,.37,.09,.13,.25,.18,.44,.12,.14-.04,.27-.1,.4-.15,.13-.06,.26-.12,.41-.19,.12,.08,.23,.16,.36,.24,.3,.2,.62,.37,.99,.46,.13,.03,.27,.05,.4,.05,.27,0,.49-.15,.52-.35,.03-.19-.12-.36-.36-.45-.27-.09-.55-.18-.8-.31-.72-.38-1.22-.92-1.63-1.53-.16-.25-.29-.51-.43-.77-.05-.1-.1-.2-.15-.29-.05-.09-.12-.17-.26-.15-.11,.02-.18,.12-.15,.26,.08,.34,.17,.67,.26,1.01,.01,.04,.02,.08,.04,.16Z"/><path class="j" d="M150.07,60.87c.09,.62,.44,1.09,1.11,1.38,.24,.1,.5,.17,.79,.18,.56,.01,.87-.42,.69-.82-.09-.19-.19-.38-.33-.54-.22-.25-.45-.49-.72-.71-.39-.31-.9-.3-1.29-.02-.19,.14-.27,.31-.26,.53Z"/><path class="j" d="M57.49,95.05c.06-.1,.12-.18,.15-.27,.13-.44,.26-.87,.39-1.31,.19-.69,.39-1.37,.57-2.07,.17-.68,.27-1.38,.3-2.07,.01-.22,0-.44-.02-.66,0-.07-.04-.17-.11-.21-.07-.05-.2-.07-.29-.05-.07,.01-.14,.1-.17,.17-.03,.07,0,.16,0,.24,.1,.44,0,.88-.04,1.32-.1,.9-.35,1.77-.56,2.66-.15,.65-.27,1.3-.4,1.96-.02,.11-.03,.21,.17,.31Z"/><path class="j" d="M147.88,59.68c0,.14,.18,.29,.35,.28,.14,0,.26-.11,.26-.22,0-.15-.15-.31-.31-.31-.16,0-.3,.12-.3,.25Z"/><path class="j" d="M146.92,60.28c.15,0,.28-.11,.29-.24,0-.13-.17-.28-.33-.27-.16,0-.29,.14-.28,.27,0,.13,.17,.24,.33,.24Z"/><path class="j" d="M148.58,60.89c0,.13,.18,.26,.34,.26,.15,0,.27-.12,.26-.25-.01-.13-.19-.27-.34-.27-.14,0-.27,.13-.26,.25Z"/><path class="j" d="M146.17,58.88c0,.1,.14,.21,.27,.21,.13,0,.26-.11,.27-.22,0-.11-.14-.23-.29-.23-.11,0-.24,.13-.25,.23Z"/></g><g><path class="h" d="M119.72,128.84c.2,.19,.38,.34,.54,.49,.8,.77,1.73,1.41,2.83,1.85,.78,.31,1.59,.53,2.46,.56,.25,0,.37-.08,.4-.26,.02-.13-.09-.21-.18-.29-.46-.42-.93-.84-1.38-1.28-.46-.46-.77-.99-1.04-1.54-.32-.64-.67-1.28-.95-1.94-.31-.71-.41-1.46-.54-2.2-.12-.73-.25-1.45-.36-2.18-.06-.42-.1-.84-.15-1.26,0-.08-.02-.16-.04-.24-.05-.21-.19-.35-.47-.37-.06,0-.13-.02-.19-.02-1.02,0-2.05-.02-3.07-.02-.16,0-.32,.03-.47,.06-.25,.05-.35,.17-.34,.39,0,.17,.05,.33,.07,.5,.1,.66,.2,1.31,.29,1.97,.12,.87,.24,1.74,.33,2.61,.16,1.51,.4,3,.82,4.47,.09,.3,.2,.6,.31,.89,.03,.09,.08,.18,.14,.27,.09,.13,.21,.22,.4,.22,.2,0,.34-.12,.39-.27,.06-.16,.09-.33,.1-.49,.04-.62,.06-1.24,.09-1.91Z"/><path class="h" d="M112.33,128.43c.33,.34,.67,.68,1,1.03,.67,.7,1.42,1.32,2.34,1.77,.38,.19,.79,.34,1.18,.51,.16,.07,.33,.08,.47-.04,.16-.13,.21-.29,.1-.46-.17-.28-.38-.53-.53-.82-.4-.76-.8-1.52-1.17-2.29-.11-.22-.12-.48-.15-.73-.06-.47-.1-.95-.15-1.42-.15-1.42-.29-2.83-.45-4.25-.04-.31-.13-.63-.24-.93-.11-.32-.3-.43-.7-.42-.74,0-1.48,.03-2.22,.04-.36,0-.72,0-1.08-.01-.15,0-.3,0-.45,0-.53,0-.66,.11-.65,.55,.02,.87,.15,1.73,.29,2.58,.12,.73,.23,1.47,.35,2.2,.21,1.26,.31,2.53,.64,3.77,.1,.39,.22,.77,.34,1.16,.03,.1,.08,.21,.15,.29,.2,.24,.6,.21,.7-.06,.09-.23,.12-.48,.13-.73,.02-.5,0-.99,.01-1.49,0-.09,.01-.17,.02-.26h.06Z"/><path class="h" d="M57.08,130.37c.4,.4,.75,.77,1.12,1.14,.61,.6,1.35,1.07,2.22,1.38,.25,.09,.52,.15,.78,.22,.1,.02,.21,.03,.31,.02,.26-.02,.4-.22,.3-.42-.05-.1-.13-.21-.21-.29-1.02-1.05-1.52-2.28-1.76-3.59-.13-.71-.2-1.42-.27-2.13-.05-.45-.05-.9-.07-1.35-.03-.73-.04-1.47-.07-2.2,0-.26-.03-.51-.06-.77-.06-.45-.22-.61-.75-.63-.9-.03-1.8,0-2.69,0-.27,0-.55,0-.82-.02-.09,0-.19-.02-.28-.02-.29,0-.49,.11-.57,.34-.06,.19-.09,.38-.09,.57,.04,1.19,.27,2.37,.58,3.53,.32,1.21,.6,2.42,.78,3.65,.12,.85,.32,1.69,.49,2.53,.03,.15,.09,.29,.16,.43,.07,.14,.21,.22,.4,.21,.18-.01,.27-.09,.33-.27,.19-.6,.2-1.2,.15-1.82-.01-.15,0-.31,0-.5Z"/><path class="h" d="M67.49,130.48c.08,.1,.15,.21,.23,.31,.87,1.15,2.07,1.95,3.63,2.34,.28,.07,.58,.07,.88,.1,.04,0,.08,0,.13,0,.24-.02,.48-.06,.57-.27,.09-.19-.06-.35-.21-.47-.66-.55-1.15-1.19-1.6-1.87-.48-.73-.77-1.51-.96-2.32-.22-.92-.36-1.85-.43-2.78-.03-.36,0-.73,0-1.09-.01-.69-.1-1.37-.28-2.05-.02-.07-.04-.14-.08-.2-.1-.18-.22-.23-.46-.2-.23,.02-.46,.04-.69,.05-.56,.03-1.12,.06-1.68,.09-.18,0-.36,0-.54,0-.33,0-.65,0-.98,.01-.3,.02-.48,.19-.45,.45,.05,.44,.11,.88,.2,1.31,.24,1.23,.48,2.46,.76,3.68,.19,.84,.26,1.7,.38,2.54,.1,.75,.21,1.51,.49,2.24,.05,.14,.14,.28,.26,.38,.24,.21,.55,.14,.62-.14,.08-.32,.12-.64,.14-.97,.02-.37,0-.74,0-1.11l.06-.02Z"/></g></g><g><path class="h" d="M27.82,97.3l-17.71-3.4,.58-3.02c.02-.09,.33-.22,.44-.29,2.47-1.22,4.87-2.41,7.34-3.63l-4.84-5.34c-.09-.05-.98-.97-.95-1.12l.58-3.02,17.71,3.4-.63,3.29-10.87-2.09c1.83,2.11,3.56,4.22,5.56,6.14-2.47,1.22-4.98,2.49-7.45,3.7l10.87,2.09-.63,3.29Z"/><path class="h" d="M33.17,76.02l-16.78-6.88,1.28-3.13,16.78,6.88-1.28,3.13Z"/><path class="h" d="M31.24,63.68c2.02-.69,4.04-1.63,5.21-3.47,.51-.81,1.07-2.41,.69-3.42-.7-1.28-6.2,8.19-11.82,4.64-3.01-1.91-2.87-5.53-1.16-8.23,1.83-2.88,4.02-3.79,7.16-4.89l1,4.13c-1.77,.66-3.16,1.42-4.25,3.02-.9,1.36-1.1,2.76-.78,2.96,.38,.24,2.36-1.64,2.61-1.92,2.39-2.42,5.51-4.96,9.03-2.73,3.33,2.11,3.23,5.9,1.36,8.86-1.91,3.02-4.88,4.08-8.08,5.22l-.97-4.18Z"/><path class="h" d="M36.26,38.12l7.74,8.05c.97,1.01,2.72,.3,3.98-.92,1.29-1.24,2.09-3.02,1.01-4.14l-7.6-7.91,2.46-2.37,7.43,7.73c2.91,3.03,2.99,7.19,0,10.07-2.86,2.75-7.02,2.73-9.86-.23l-7.6-7.91,2.46-2.37Z"/><path class="h" d="M59.8,41.03l-8.72-15.79,2.77-1.53c.08-.04,.63,.2,.73,.25,4.26,1.79,8.46,3.62,12.69,5.42l-5.54-10.03,2.93-1.62,8.69,15.74-2.91,1.61-13.17-5.52,5.44,9.86-2.94,1.62Z"/><path class="h" d="M77.25,32.24l-4.39-17.69,4.75-1.18c4.56-1.13,10,.47,11.29,5.66,1.75,7.04-2,10.82-8.42,12.42l-3.22,.8Zm2.18-5.23c2.36-.59,7.27-2.89,6.45-6.16-.89-3.58-5.32-3.56-8.03-2.89l-.63,.16,2.21,8.89Z"/><path class="h" d="M94.42,10.4l12.95,.03v4.52l-9.61-.02v1.88l8.54,.02v4.52l-8.56-.02v2.64l9.59,.02v4.52l-12.96-.03,.04-18.07Z"/><path class="h" d="M118.8,12.16c4.02,1.02,8.36,3.44,7.09,8.43-.49,1.94-2.21,3.31-4.01,4.04l5.14,8.23-5.36-1.36c-.15-.04-3.21-5.74-3.58-6.39-.31,.12-2.15-.15-2.55-.19l-1.2,4.72-3.28-.83,4.45-17.48,3.31,.84Zm-2.15,8.32c1.5,.22,4.75,.42,5.9-.76-.43-1.55-3.2-2.75-4.6-3.11l-.3-.08-1,3.95Z"/><path class="h" d="M132.18,28.2c.84,1.96,1.93,3.9,3.86,4.93,.84,.45,2.49,.89,3.46,.43,1.22-.79-8.64-5.56-5.53-11.43,1.67-3.15,5.29-3.28,8.12-1.78,3.01,1.6,4.08,3.71,5.42,6.77l-4.04,1.31c-.79-1.72-1.66-3.04-3.34-4-1.43-.79-2.83-.89-3.01-.55-.21,.39,1.81,2.22,2.11,2.45,2.59,2.2,5.36,5.11,3.41,8.79-1.85,3.48-5.64,3.67-8.73,2.03-3.15-1.67-4.44-4.55-5.82-7.66l4.09-1.29Z"/><path class="h" d="M153.68,27.64l10.23,8.76-2.94,3.43-3.78-3.24-8.8,10.27-2.59-2.22,8.8-10.27-3.85-3.3,2.94-3.43Z"/><path class="h" d="M173.25,47.47c2.96,4.04,2.23,9.38-2.01,12.49-2.62,1.92-5.53,2.57-8.5,1.31-1.76-.73-3.15-1.77-4.12-3.08-.96-1.31-1.52-2.93-1.68-4.83-.3-3.21,1.21-5.77,3.83-7.69,4.31-3.16,9.45-2.35,12.48,1.79Zm-10.96,8.03c1.36,1.86,4.78,3.29,6.93,1.71,2.1-1.54,1.71-5.25,.38-7.06-1.36-1.86-4.73-3.28-6.84-1.74-2.16,1.58-1.88,5.19-.48,7.1Z"/><path class="h" d="M184.87,68.52c1.84,4.66-.23,9.64-5.11,11.57-3.02,1.19-6,1.08-8.56-.89-1.52-1.15-2.6-2.51-3.2-4.03-.6-1.52-.72-3.22-.4-5.1,.52-3.18,2.64-5.27,5.66-6.46,4.97-1.96,9.73,.13,11.61,4.91Zm-12.64,4.99c.85,2.14,3.78,4.39,6.27,3.41,2.43-.96,2.99-4.65,2.17-6.74-.85-2.14-3.74-4.37-6.17-3.42-2.49,.98-3.13,4.54-2.26,6.75Z"/><path class="h" d="M171.61,85.86l18.04-2.57,.69,4.84c.66,4.66-1.48,9.9-6.77,10.66-7.18,1.03-10.56-3.09-11.49-9.64l-.47-3.29Zm4.98,2.71c.34,2.41,2.13,7.53,5.47,7.05,3.65-.52,4.09-4.93,3.69-7.7l-.09-.64-9.07,1.29Z"/></g><g><path class="g" d="M90.19,141.23c-.3-.43-.82-.8-1.57-1.09-.75-.3-1.76-.51-3.04-.65s-2.89-.21-4.85-.21h-1.71c-1.37,0-2.62,.39-3.75,1.16-1.14,.77-2,1.77-2.59,3l-5.05,10.56-3.28,6.85-3.42-6.31-6.82-12.6c-.5-.96-1.16-1.64-1.98-2.05-.82-.41-1.8-.61-2.94-.61h-3.48c-.98,0-1.98,.06-2.99,.14,4.03,4,6.83,9.69,11.31,15.06,1.94,2.33,4.2,4.6,7.01,6.65,2.14,1.56,4.71,3.11,7.6,4.68l4.44-8.92v11.22c3.94,1.96,8.27,3.93,12.77,5.96v-21.47c0-.75,.04-1.4,.1-2,.11-1.12,.32-2.02,.65-2.64,.5-.96,1.05-1.67,1.64-2.15,.59-.48,1.14-.89,1.64-1.23,.5-.34,.75-.94,.75-1.81,0-.59-.15-1.1-.44-1.54Z"/><path class="h" d="M101.18,194.99c-.57-.45-1.56-.68-2.97-.68-.82,0-1.7,.05-2.63,.14-.93,.09-1.85,.08-2.76-.03-.91-.11-1.79-.4-2.63-.85-.84-.46-1.58-1.24-2.22-2.36-.64-1.12-1.15-2.63-1.54-4.54-.1-.5-.19-1.05-.26-1.63-.21-1.62-.32-3.53-.32-5.74v-5.22c-4.5-2.02-8.83-4-12.77-5.96v11.18c0,.24,0,.46,0,.7,.04,4.6,.47,8.48,1.29,11.63,.86,3.3,2.02,5.95,3.48,7.95,1.46,2,3.14,3.42,5.05,4.27,1.91,.84,3.89,1.26,5.94,1.26s3.88-.29,5.49-.85c1.62-.57,2.99-1.27,4.13-2.12,1.14-.84,2.01-1.74,2.63-2.7,.62-.96,.92-1.82,.92-2.59s-.29-1.39-.85-1.84Z"/><path class="h" d="M61.04,161.14c-2.81-2.05-5.06-4.32-7.01-6.65-4.48-5.38-7.29-11.06-11.31-15.06-1.63,.14-3.3,.38-5.03,.74-1.15,.24-2.25,.58-3.31,.97-1.54,.56-3,1.25-4.37,2.11-1.11,.69-2.11,1.51-3.04,2.44-1.02,1.02-1.93,2.18-2.73,3.49-1.52,2.5-2.29,5.64-2.29,9.42,0,.96,.17,1.81,.51,2.56,.34,.75,.81,1.4,1.4,1.95,.42,.38,.88,.68,1.36,.93,.2,.1,.4,.22,.62,.3,.73,.27,1.46,.41,2.19,.41,.77,0,1.52-.15,2.25-.44,.73-.3,1.38-.75,1.95-1.37,.57-.61,1.02-1.4,1.36-2.36,.34-.96,.51-2.12,.51-3.48s-.01-2.66-.03-4.03c-.02-1.36,.04-2.6,.21-3.72,.16-1.11,.45-2.02,.89-2.73,.43-.71,1.1-1.06,2.01-1.06s1.71,.47,2.39,1.4c.68,.93,1.02,2.67,1.02,5.22v22.66c0,1.41-.14,2.55-.4,3.45-.13,.47-.29,.89-.49,1.22-.59,.98-1.24,1.72-1.94,2.22-.71,.5-1.35,.96-1.95,1.36-.59,.41-.89,1.09-.89,2.05,0,.46,.25,.85,.75,1.19,.5,.34,1.17,.63,2.01,.85,.84,.23,1.8,.4,2.87,.51,1.07,.11,2.17,.17,3.31,.17s2.17-.06,3.24-.17c1.07-.11,2.02-.29,2.87-.51,.84-.23,1.51-.51,2.01-.85,.5-.34,.75-.74,.75-1.19,0-.96-.3-1.64-.89-2.05-.59-.41-1.24-.86-1.94-1.36-.71-.5-1.35-1.24-1.95-2.22-.01-.02-.02-.05-.03-.07-.57-.98-.86-2.51-.86-4.61v-17.75l10.45,18.84c.18,.31,.38,.58,.59,.8,.23,.24,.49,.44,.77,.59,.55,.3,1.11,.44,1.71,.44,.64,0,1.22-.15,1.74-.44,.24-.14,.46-.31,.65-.52,.23-.24,.44-.53,.61-.88l5.04-10.13c-2.89-1.56-5.46-3.12-7.6-4.68Z"/><path class="g" d="M122.44,151.23c-.82,0-1.81,.14-2.97,.41-1.16,.27-2.29,.66-3.38,1.16-1.09,.5-2.03,1.1-2.8,1.81-.77,.71-1.16,1.47-1.16,2.29,0,.91,.19,1.46,.58,1.64,.39,.18,.84,.38,1.36,.58,.52,.21,1.01,.59,1.47,1.16,.46,.57,.75,1.67,.89,3.31v7.99c-.27,1.05-.69,2-1.26,2.87-.57,.87-1.22,1.6-1.95,2.22-.73,.61-1.49,1.08-2.29,1.4-.8,.32-1.56,.48-2.29,.48-1,0-1.83-.33-2.49-.99-.66-.66-.99-1.72-.99-3.17v-17.14c0-2.23-.48-3.79-1.43-4.68-.96-.89-2.62-1.33-4.98-1.33-.82,0-1.81,.14-2.97,.41-1.16,.27-2.29,.66-3.38,1.16s-2.03,1.1-2.8,1.81c-.77,.71-1.16,1.47-1.16,2.29,0,.91,.19,1.46,.58,1.64,.39,.18,.84,.38,1.37,.58,.52,.21,1.01,.59,1.47,1.16,.45,.57,.75,1.67,.89,3.31v12.36c0,.42,.02,.83,.04,1.23,6.09,2.74,12.26,5.57,18,8.55,2.1-1.15,3.99-2.74,5.66-4.8,0,2.55,.5,4.31,1.5,5.29,.94,.92,2.58,1.4,4.89,1.46-3.05-11.9-.48-25.49,5.13-34.46-.16-.24-.33-.46-.53-.65-.96-.89-2.62-1.33-4.98-1.33Z"/><path class="k" d="M122.83,187.68c.15,0,.28,.01,.43,.01,1.37,0,2.65-.21,3.86-.61,1.21-.41,2.25-.92,3.14-1.54,.89-.61,1.59-1.25,2.12-1.91,.52-.66,.78-1.22,.78-1.67,0-.59-.1-1.02-.31-1.3-.21-.27-.47-.47-.78-.58-.32-.11-.67-.23-1.06-.34-.39-.11-.74-.34-1.06-.68-.32-.34-.58-.85-.79-1.54-.21-.68-.31-1.64-.31-2.87v-17.41c0-1.77-.3-3.1-.9-4.03-5.61,8.97-8.17,22.57-5.13,34.46Z"/><path class="h" d="M95.44,184.79c1.8,1.89,4.36,2.83,7.68,2.83,2.73,0,5.2-.58,7.41-1.74,.08-.04,.16-.1,.25-.15-5.73-2.98-11.91-5.82-18-8.55,.17,3.38,1.05,5.92,2.66,7.61Z"/><path class="i" d="M121.83,149.39c.09-.02,.19-.02,.27-.04,1.46-.3,2.81-.69,4.06-1.19,1.25-.5,2.41-1.07,3.48-1.71,1.07-.64,2.08-1.27,3.04-1.91,.64-.41,1.16-.61,1.57-.61,.68,0,1.04,.52,1.08,1.53,1.77-1.1,3.66-1.82,5.63-2.05,3.21-.38,5.21,5.76,7.2,12.06h2.75c1.18,0,2.04-.26,2.56-.79,.52-.52,.8-1.09,.82-1.71,.02-.61-.19-1.18-.65-1.71-.46-.52-1.09-.79-1.91-.79-.5,0-.96,.09-1.37,.27l-2.53,.61v-8.53c0-4.37-1.8-6.55-5.39-6.55-1.27,0-2.44,.22-3.48,.65-1.05,.43-2.07,.91-3.07,1.43-1,.52-2,1-3,1.43-1,.43-2.09,.65-3.28,.65-1.32,0-2.5-.13-3.55-.38-1.05-.25-2.06-.53-3.04-.85-.98-.32-1.95-.6-2.9-.85-.96-.25-2-.38-3.14-.38-2.46,0-4.31,.61-5.56,1.84-1.25,1.23-1.87,2.58-1.84,4.06,0,.41,.06,.8,.17,1.19,1.03,.46,2.06,.92,3.08,1.39,2.65,1.22,5.93,1.99,9.01,2.92Z"/><path class="i" d="M117.32,149.8c1.63,0,3.12-.14,4.51-.4-3.08-.94-6.37-1.7-9.01-2.92-1.02-.47-2.05-.93-3.08-1.39,.27,1.02,.86,1.98,1.78,2.87,1.27,1.23,3.21,1.84,5.8,1.84Z"/><path class="k" d="M154.83,180.59c-.3-.64-.79-.96-1.47-.96-.37,0-.71,.09-1.02,.27-.63,.31-1.17,.48-1.62,.53-.07,0-.15,.02-.22,.02-1.09,0-1.81-.75-2.15-2.25-.24-1.06-.39-2.4-.46-4-.03-.67-.05-1.38-.05-2.15v-16.59h.32c-1.98-6.3-3.99-12.44-7.2-12.06-1.97,.23-3.86,.95-5.63,2.05,0,.06,.02,.11,.02,.18v5.8h-2.8c-.68,0-1.21,.21-1.57,.61-.36,.41-.56,.86-.58,1.37,0,.05,0,.11,0,.16,.02,.44,.18,.85,.5,1.24,.36,.43,.91,.65,1.64,.65h2.8v22.19c0,1.77,.26,3.27,.79,4.47,.52,1.21,1.23,2.18,2.12,2.94,.89,.75,1.89,1.3,3,1.64,1.11,.34,2.26,.51,3.45,.51,.74,0,1.47-.07,2.2-.18,.38-.06,.77-.11,1.15-.2,1.09-.25,2.1-.59,3.04-1.02,.38-.17,.71-.37,1.05-.56,.49-.29,.95-.58,1.34-.91,.66-.55,1.13-1.11,1.4-1.71,.27-.73,.26-1.41-.03-2.05Z"/><path class="i" d="M170.43,171.67v-16.28h3.14c1.32,0,2.24-.32,2.76-.96,.52-.64,.75-1.31,.68-2.01-.07-.7-.41-1.3-1.02-1.77-.61-.48-1.42-.53-2.42-.17l-3.14,1.02v-5.53c0-.77-.19-1.34-.58-1.71-.39-.36-.9-.55-1.54-.55-.82,0-1.73,.32-2.73,.96l-9.35,6.08c-.68,.45-1.14,.94-1.36,1.47-.23,.52-.26,1.01-.1,1.47,.16,.46,.47,.83,.92,1.13,.45,.3,1,.44,1.64,.44,.23,0,.41,.06,.55,.17,.14,.11,.25,.42,.34,.92,.09,.5,.16,1.27,.21,2.32,.04,1.05,.07,2.5,.07,4.37v6.96c5.18,1.94,9.06,2.31,11.95,1.67Z"/><path class="k" d="M159.23,182.05c.5,1.21,1.18,2.18,2.05,2.94,.86,.75,1.84,1.3,2.94,1.64,1.09,.34,2.21,.51,3.34,.51s2.17-.13,3.24-.38c1.07-.25,2.05-.59,2.94-1.02,.89-.43,1.66-.92,2.32-1.47,.66-.55,1.1-1.11,1.33-1.71,.32-.73,.33-1.41,.03-2.05-.3-.64-.76-.96-1.4-.96-.36,0-.71,.09-1.02,.27-.73,.36-1.34,.55-1.84,.55-1.14,0-1.88-.75-2.22-2.25-.34-1.5-.51-3.55-.51-6.14v-.31c-2.89,.65-6.76,.27-11.95-1.67v7.58c0,1.77,.25,3.27,.75,4.47Z"/></g></g></g></g></svg>